<svg xmlns="http://www.w3.org/2000/svg" xmlns:xlink="http://www.w3.org/1999/xlink" width="500" zoomAndPan="magnify" viewBox="0 0 375 374.999991" height="500" preserveAspectRatio="xMidYMid meet" version="1.0"><defs><g/><clipPath id="365f2ecec8"><path d="M 15.75 0 L 359.25 0 C 367.949219 0 375 7.050781 375 15.75 L 375 359.25 C 375 367.949219 367.949219 375 359.25 375 L 15.75 375 C 7.050781 375 0 367.949219 0 359.25 L 0 15.75 C 0 7.050781 7.050781 0 15.75 0 Z M 15.75 0 " clip-rule="nonzero"/></clipPath><clipPath id="97731f7c1a"><path d="M 0 0 L 375 0 L 375 375 L 0 375 Z M 0 0 " clip-rule="nonzero"/></clipPath><clipPath id="a153b881ea"><path d="M 15.75 0 L 359.25 0 C 367.949219 0 375 7.050781 375 15.75 L 375 359.25 C 375 367.949219 367.949219 375 359.25 375 L 15.75 375 C 7.050781 375 0 367.949219 0 359.25 L 0 15.75 C 0 7.050781 7.050781 0 15.75 0 Z M 15.75 0 " clip-rule="nonzero"/></clipPath><clipPath id="8e906eccd9"><rect x="0" width="375" y="0" height="375"/></clipPath><clipPath id="d1a4d9db91"><path d="M 0.839844 0.519531 L 151 0.519531 L 151 291.640625 L 0.839844 291.640625 Z M 0.839844 0.519531 " clip-rule="nonzero"/></clipPath><clipPath id="260a8fb345"><rect x="0" width="151" y="0" height="292"/></clipPath><clipPath id="5778ba12c8"><path d="M 129 13 L 175.078125 13 L 175.078125 102 L 129 102 Z M 129 13 " clip-rule="nonzero"/></clipPath><clipPath id="503fdedbe5"><rect x="0" width="47" y="0" height="89"/></clipPath><clipPath id="e5e01644bc"><rect x="0" width="176" y="0" height="292"/></clipPath></defs><rect x="-37.5" width="450" fill="#ffffff" y="-37.499999" height="449.999989" fill-opacity="1"/><rect x="-37.5" width="450" fill="#ffffff" y="-37.499999" height="449.999989" fill-opacity="1"/><g><g transform="matrix(1, 0, 0, 1, 0, 0)"><g><g><g><rect x="-82.5" width="540" fill="#000000" height="539.999987" y="-82.499998" fill-opacity="1"/></g></g></g></g></g><g transform="matrix(1, 0, 0, 1, 105, 41)"><g clip-path="url(#e5e01644bc)"><g clip-path="url(#d1a4d9db91)"><g><g clip-path="url(#260a8fb345)"><g fill="#ffffff" fill-opacity="1"><g transform="translate(1.621394, 203.327835)"><g><path d="M 8.15625 7.859375 C 5.820312 6.890625 3.878906 5.238281 2.328125 2.90625 C 0.773438 0.582031 0 -1.835938 0 -4.359375 L 0 -141.171875 C 0 -144.660156 1.304688 -147.710938 3.921875 -150.328125 C 6.546875 -152.953125 9.601562 -154.265625 13.09375 -154.265625 L 43.65625 -154.265625 C 46.375 -154.265625 48.800781 -153.441406 50.9375 -151.796875 C 53.070312 -150.148438 54.625 -148.160156 55.59375 -145.828125 L 66.65625 -135.0625 C 69.175781 -132.539062 70.4375 -129.726562 70.4375 -126.625 L 70.4375 -125.15625 L 84.703125 -125.15625 C 92.660156 -125.15625 99.9375 -123.265625 106.53125 -119.484375 C 113.132812 -115.703125 118.375 -110.707031 122.25 -104.5 L 130.109375 -96.921875 C 134.179688 -92.847656 137.378906 -88.144531 139.703125 -82.8125 C 142.035156 -77.476562 143.203125 -71.707031 143.203125 -65.5 L 143.203125 -21.828125 C 143.203125 -13.679688 141.257812 -6.257812 137.375 0.4375 C 133.5 7.132812 128.210938 12.46875 121.515625 16.4375 C 114.828125 20.414062 107.40625 22.40625 99.25 22.40625 L 82.671875 22.40625 C 76.847656 22.40625 71.316406 21.34375 66.078125 19.21875 C 65.109375 19.988281 63.941406 20.710938 62.578125 21.390625 C 61.222656 22.066406 59.769531 22.40625 58.21875 22.40625 L 27.65625 22.40625 C 24.550781 22.40625 21.738281 21.144531 19.21875 18.625 Z M 8.15625 7.859375 "/></g></g></g></g></g></g><g clip-path="url(#5778ba12c8)"><g transform="matrix(1, 0, 0, 1, 129, 13)"><g clip-path="url(#503fdedbe5)"><g fill="#ffffff" fill-opacity="1"><g transform="translate(1.93384, 61.713166)"><g><path d="M 8.09375 2.875 L 5.734375 0.515625 C 3.878906 -0.640625 2.382812 -2.21875 1.25 -4.21875 C 0.125 -6.21875 -0.4375 -8.4375 -0.4375 -10.875 L -0.4375 -23.90625 C -0.4375 -26.40625 0.15625 -28.664062 1.34375 -30.6875 C 2.53125 -32.71875 4.140625 -34.34375 6.171875 -35.5625 C 8.203125 -36.78125 10.460938 -37.390625 12.953125 -37.390625 L 24.875 -37.390625 C 27.25 -37.390625 29.421875 -36.820312 31.390625 -35.6875 C 33.359375 -34.5625 34.921875 -33.070312 36.078125 -31.21875 L 38.4375 -28.953125 C 39.65625 -27.734375 40.609375 -26.328125 41.296875 -24.734375 C 41.992188 -23.140625 42.34375 -21.414062 42.34375 -19.5625 L 42.34375 -6.515625 C 42.34375 -4.085938 41.765625 -1.875 40.609375 0.125 C 39.453125 2.125 37.875 3.71875 35.875 4.90625 C 33.875 6.101562 31.65625 6.703125 29.21875 6.703125 L 17.296875 6.703125 C 15.503906 6.703125 13.8125 6.351562 12.21875 5.65625 C 10.625 4.957031 9.25 4.03125 8.09375 2.875 Z M 8.09375 2.875 "/></g></g></g></g></g></g></g></g></svg>