<svg xmlns="http://www.w3.org/2000/svg" xmlns:xlink="http://www.w3.org/1999/xlink" width="500" zoomAndPan="magnify" viewBox="0 0 375 374.999991" height="500" preserveAspectRatio="xMidYMid meet" version="1.0"><defs><clipPath id="2e25ad7153"><path d="M 29.277344 166 L 286 166 L 286 340 L 29.277344 340 Z M 29.277344 166 " clip-rule="nonzero"/></clipPath><clipPath id="0cea10779c"><path d="M 29.277344 9 L 144 9 L 144 139 L 29.277344 139 Z M 29.277344 9 " clip-rule="nonzero"/></clipPath><clipPath id="0aad61b1a3"><path d="M 29.277344 129 L 266 129 L 266 375 L 29.277344 375 Z M 29.277344 129 " clip-rule="nonzero"/></clipPath><clipPath id="9e8c3989b6"><path d="M 29.277344 141 L 218 141 L 218 375 L 29.277344 375 Z M 29.277344 141 " clip-rule="nonzero"/></clipPath><clipPath id="f3a76f57e1"><path d="M 29.277344 210 L 200 210 L 200 269 L 29.277344 269 Z M 29.277344 210 " clip-rule="nonzero"/></clipPath><clipPath id="91a826085b"><path d="M 29.277344 269 L 296 269 L 296 375 L 29.277344 375 Z M 29.277344 269 " clip-rule="nonzero"/></clipPath><clipPath id="a4e204a0ca"><path d="M 29.277344 222 L 231 222 L 231 375 L 29.277344 375 Z M 29.277344 222 " clip-rule="nonzero"/></clipPath><clipPath id="8487db89e9"><path d="M 29.277344 317 L 241 317 L 241 375 L 29.277344 375 Z M 29.277344 317 " clip-rule="nonzero"/></clipPath><clipPath id="23e7b3aac1"><path d="M 29.277344 61 L 345.777344 61 L 345.777344 375 L 29.277344 375 Z M 29.277344 61 " clip-rule="nonzero"/></clipPath><clipPath id="e1d813c501"><path d="M 29.277344 283 L 46 283 L 46 375 L 29.277344 375 Z M 29.277344 283 " clip-rule="nonzero"/></clipPath></defs><path fill="#fa9b81" d="M 175.558594 4.988281 L 178.507812 6.175781 L 178.507812 8.355469 L 182.113281 8.015625 C 188.460938 7.957031 193.65625 10.949219 199.183594 13.796875 L 199.183594 15.972656 L 201.359375 15.972656 L 201.359375 18.148438 L 203.199219 18.964844 C 206.195312 20.585938 208.644531 22.375 211.15625 24.679688 L 211.15625 27.941406 L 213.332031 27.941406 C 216.578125 33.328125 219.28125 37.886719 219.863281 44.265625 C 220.214844 46.082031 220.578125 47.894531 220.949219 49.707031 L 223.128906 49.707031 L 223.398438 52.835938 L 224.214844 56.238281 C 226.175781 57.40625 226.175781 57.40625 228.570312 58.414062 C 230.285156 59.476562 231.988281 60.566406 233.671875 61.679688 L 236.269531 63.378906 C 238.363281 64.945312 238.363281 64.945312 239.453125 67.121094 L 238.9375 69.378906 C 238.148438 72.875 237.953125 75.507812 238.363281 79.089844 C 240.785156 84.296875 244.503906 88.816406 247.871094 93.433594 C 251.125 98.117188 253.433594 103.296875 255.777344 108.472656 L 257.023438 110.972656 C 262.363281 122.570312 263.085938 136.0625 264.167969 148.621094 L 264.371094 150.914062 C 264.699219 154.703125 265.007812 158.488281 265.285156 162.28125 C 265.976562 170.722656 267.371094 178.273438 270.121094 186.296875 C 271.015625 189.007812 271.015625 189.007812 271.015625 191.183594 C 273.347656 191.210938 275.683594 191.234375 278.019531 191.25 L 281.960938 191.289062 L 285.164062 191.183594 L 286.25 190.09375 C 288.609375 190.042969 290.96875 190.054688 293.324219 190.09375 C 300.402344 190.144531 307.171875 189.84375 314.113281 188.429688 C 319.125 187.738281 324.050781 187.800781 329.101562 187.851562 L 332.160156 187.863281 C 334.632812 187.878906 337.105469 187.894531 339.578125 187.917969 L 339.578125 190.09375 L 342.84375 190.09375 C 343.046875 192.40625 343.046875 192.40625 342.84375 195.535156 C 342.378906 196.390625 341.917969 197.246094 341.4375 198.128906 C 338.542969 203.695312 337.28125 209.902344 335.699219 215.941406 L 334.699219 219.664062 C 332.800781 226.816406 331.121094 233.964844 329.785156 241.242188 L 327.605469 241.242188 L 327.445312 244.347656 L 327.199219 248.453125 C 327.121094 249.792969 327.046875 251.128906 326.96875 252.507812 C 326.535156 256.320312 325.667969 259.425781 324.34375 263.007812 L 323.457031 266.410156 C 322.164062 269.539062 322.164062 269.539062 320.054688 271.917969 C 314.375 275.28125 308.367188 277.070312 301.746094 277.226562 C 296.371094 276.835938 292.984375 275.75 288.425781 272.800781 C 286.132812 273.203125 286.132812 273.203125 284.074219 273.890625 L 283.425781 277.089844 C 280.917969 288.621094 276.730469 298.417969 271.015625 308.714844 L 269.25 311.933594 L 267.75 314.15625 L 265.574219 314.15625 L 264.789062 316.015625 C 263.085938 319.066406 260.992188 321.160156 258.5 323.609375 L 255.878906 326.207031 C 253.601562 328.304688 253.601562 328.304688 251.425781 329.390625 C 249.664062 332.308594 249.664062 332.308594 249.246094 335.921875 C 251.511719 338.992188 251.511719 338.992188 253.328125 340.792969 C 254.6875 342.453125 254.6875 342.453125 255.574219 346.125 L 255.777344 348.980469 C 251.539062 351.988281 247.613281 353.007812 242.597656 353.953125 L 240.539062 354.421875 L 239.453125 355.511719 C 235.464844 355.660156 232.371094 355.691406 228.570312 354.421875 C 226.691406 354.183594 224.808594 353.980469 222.925781 353.8125 L 219.953125 353.535156 L 217.6875 353.335938 L 217.6875 351.15625 L 214.011719 350.683594 C 210.066406 350.070312 210.066406 350.070312 207.890625 348.980469 C 203.445312 348.617188 200.035156 348.953125 195.929688 350.550781 C 189.820312 352.660156 183.765625 353.097656 177.351562 353.539062 L 173.867188 353.808594 C 171.058594 354.023438 168.253906 354.230469 165.445312 354.421875 L 166.148438 358.03125 L 166.535156 362.039062 C 164.019531 365.238281 164.019531 365.238281 161.09375 367.480469 L 158.917969 367.480469 L 158.917969 369.65625 C 146.878906 370.359375 137.359375 369.523438 126.265625 364.214844 L 124.089844 362.039062 C 121.839844 361.339844 121.839844 361.339844 119.738281 360.953125 L 119.738281 358.777344 L 116.472656 358.777344 L 116.472656 355.511719 L 114.5 355.171875 C 112.117188 354.421875 112.117188 354.421875 110.214844 352.925781 L 108.851562 351.15625 L 108.851562 347.894531 L 104.773438 346.53125 L 86 340.273438 L 86 338.097656 L 84.296875 337.828125 C 80.507812 336.660156 77.429688 334.6875 74.027344 332.65625 L 74.027344 330.480469 L 70.761719 330.480469 L 70.761719 328.304688 L 68.585938 328.304688 L 68.585938 326.128906 L 66.648438 325.289062 C 61.789062 322.59375 58.222656 317.773438 55.269531 313.132812 C 54.25 311.304688 53.246094 309.472656 52.261719 307.628906 L 50.644531 305.5625 C 48.867188 303.097656 47.882812 300.808594 46.820312 297.96875 C 45.636719 294.851562 44.5 292.148438 42.804688 289.261719 C 38.035156 277.910156 39.425781 261.199219 40.738281 249.042969 C 41.25 245.703125 41.828125 242.386719 42.464844 239.066406 C 42.828125 236.890625 43.191406 234.714844 43.554688 232.535156 C 43.933594 230.40625 44.320312 228.273438 44.710938 226.144531 L 45.292969 222.953125 L 45.730469 220.566406 L 47.90625 220.566406 C 49.257812 214.777344 50.417969 209.050781 51.171875 203.152344 L 53.347656 203.152344 L 54.4375 196.625 L 56.613281 196.625 C 58.1875 189.164062 59.566406 181.757812 60.070312 174.140625 C 60.476562 168.363281 61.277344 163.703125 63.542969 158.382812 C 64.660156 155.105469 64.445312 152.171875 64.230469 148.742188 L 66.410156 148.742188 L 66.371094 146.226562 C 66.265625 134.226562 67.605469 124.835938 71.679688 113.53125 C 72.933594 109.574219 73.5625 106.050781 74.027344 101.945312 L 76.203125 101.945312 L 78.378906 94.328125 L 80.558594 94.328125 L 81.375 92.527344 C 83.019531 89.433594 85 86.738281 87.085938 83.921875 C 89.324219 80.890625 91.527344 77.875 93.617188 74.738281 L 93.617188 72.5625 L 91.441406 72.5625 C 91.78125 69.023438 91.78125 69.023438 92.527344 64.945312 L 94.144531 62.890625 C 96.183594 60.050781 96.402344 57.992188 96.816406 54.539062 C 98.074219 45.953125 100.238281 38.125 105.589844 31.207031 C 106.355469 28.871094 106.355469 28.871094 106.675781 26.855469 L 108.855469 26.855469 L 108.855469 23.589844 L 111.03125 23.589844 L 111.03125 21.414062 C 116.628906 16.195312 116.628906 16.195312 119.566406 15.488281 C 122.816406 14.652344 125.308594 13.011719 128.171875 11.277344 C 144.898438 1.375 156.78125 -2.21875 175.558594 4.988281 " fill-opacity="1" fill-rule="nonzero"/><path fill="#f9f0de" d="M 227.429688 92.863281 C 231.300781 93.515625 234.257812 95.199219 237.277344 97.59375 C 243.21875 102.953125 246.609375 109.703125 249.246094 117.179688 C 250.1875 121.132812 250.910156 125.121094 251.425781 129.152344 L 253.601562 129.152344 C 253.207031 127.773438 252.816406 126.398438 252.410156 124.980469 L 250.878906 119.5625 L 250.09375 116.8125 L 249.351562 114.167969 L 248.660156 111.730469 C 248.160156 109.5625 248.160156 109.5625 248.160156 106.296875 L 250.335938 106.296875 C 256.132812 122.101562 258.363281 137.824219 260.03125 154.488281 C 260.695312 160.992188 261.542969 167.3125 263.015625 173.683594 C 263.539062 176.789062 263.101562 179.457031 262.308594 182.476562 L 256.867188 183.566406 C 253.882812 178.273438 251.828125 173.808594 251.371094 167.722656 C 251.449219 163.726562 252.25 159.929688 253.003906 156.015625 C 254.269531 147.496094 254.367188 138.835938 254.6875 130.238281 L 251.425781 130.238281 L 252.511719 133.503906 C 252.648438 136.285156 252.71875 139.023438 252.71875 141.800781 L 252.734375 144.285156 C 252.707031 149.324219 252.246094 154.074219 251.398438 159.035156 C 250.246094 165.921875 250.078125 171.125 252.464844 177.78125 C 253.84375 181.203125 255.351562 184.554688 256.867188 187.917969 C 257.628906 190.585938 257.628906 190.585938 257.953125 192.269531 L 254.257812 192.707031 L 249.449219 193.292969 L 247.015625 193.578125 C 243.625 193.992188 240.527344 194.453125 237.277344 195.535156 L 236.1875 198.800781 L 238.363281 198.800781 L 238.363281 196.625 C 244.839844 194.78125 250.765625 194.089844 257.476562 193.902344 C 266.785156 193.542969 275.992188 192.894531 285.164062 191.183594 L 286.25 190.09375 C 288.609375 190.042969 290.96875 190.054688 293.324219 190.09375 C 300.402344 190.144531 307.171875 189.84375 314.113281 188.429688 C 319.125 187.738281 324.050781 187.800781 329.101562 187.851562 L 332.160156 187.863281 C 334.632812 187.878906 337.105469 187.894531 339.578125 187.917969 L 339.578125 190.09375 L 342.84375 190.09375 C 343.046875 192.40625 343.046875 192.40625 342.84375 195.535156 L 341.4375 198.128906 C 338.542969 203.695312 337.28125 209.902344 335.699219 215.941406 L 334.699219 219.664062 C 332.800781 226.816406 331.121094 233.964844 329.785156 241.242188 L 327.605469 241.242188 L 327.445312 244.347656 L 327.199219 248.453125 C 327.121094 249.792969 327.046875 251.128906 326.96875 252.507812 C 326.535156 256.320312 325.667969 259.425781 324.34375 263.007812 L 323.457031 266.410156 C 322.164062 269.539062 322.164062 269.539062 320.054688 271.917969 C 314.375 275.28125 308.367188 277.070312 301.746094 277.226562 C 297.519531 276.917969 294.65625 276.585938 291.082031 274.230469 L 288.425781 272.800781 C 285.050781 273.171875 281.878906 273.996094 278.632812 274.980469 L 276.457031 282.597656 L 272.101562 282.597656 L 272.101562 279.332031 L 269.925781 279.332031 L 269.109375 283.550781 C 267.84375 289.3125 265.722656 294.601562 263.394531 300.007812 L 261.21875 300.007812 L 260.335938 301.894531 C 255.722656 310.695312 248.730469 317.394531 240.539062 322.863281 C 231.445312 328.335938 221.71875 334.015625 211.15625 335.921875 L 207.890625 335.921875 L 207.890625 338.097656 C 186.464844 340.914062 164.421875 340.632812 143.882812 333.542969 C 133.398438 329.183594 124.839844 322.433594 117.492188 313.8125 C 110.65625 304.34375 108.222656 292.914062 106.675781 281.507812 C 106.121094 274.035156 106.621094 268.019531 108.851562 260.832031 L 110.710938 261.03125 C 138.0625 264.03125 138.0625 264.03125 165.136719 259.980469 C 170.742188 259.609375 175.503906 261.644531 180.75 263.484375 C 182.871094 264.214844 184.992188 264.941406 187.113281 265.65625 L 189.941406 266.644531 C 192.773438 267.394531 195.179688 267.492188 198.097656 267.359375 L 196.148438 266.8125 C 193.234375 265.988281 190.328125 265.144531 187.417969 264.300781 L 184.355469 263.441406 L 181.410156 262.578125 C 180.515625 262.324219 179.621094 262.066406 178.699219 261.800781 C 176.164062 260.765625 174.839844 259.621094 173.066406 257.566406 C 178.253906 256.324219 182.6875 256.179688 187.90625 257.410156 C 192.304688 258.742188 196.628906 260.292969 200.953125 261.851562 C 202.476562 262.382812 204 262.914062 205.523438 263.441406 C 209.222656 264.722656 212.914062 266.035156 216.597656 267.359375 L 216.597656 269.539062 L 218.773438 269.539062 L 217.6875 266.273438 C 218.488281 263.511719 219.351562 260.871094 220.339844 258.179688 C 221.917969 253.839844 223.128906 250.296875 223.128906 245.597656 L 191.566406 247.773438 L 189.390625 237.976562 C 186.039062 232.820312 180.164062 229.9375 174.839844 227.117188 C 166.980469 223.121094 158.898438 219.867188 150.648438 216.777344 C 143.996094 214.257812 137.8125 211.175781 131.707031 207.507812 C 132.183594 206.054688 132.660156 204.605469 133.136719 203.152344 C 133.429688 202.257812 133.726562 201.363281 134.03125 200.441406 C 134.875 197.992188 135.824219 195.617188 136.808594 193.222656 C 138.351562 189 138.921875 185.9375 138.238281 181.386719 C 135.792969 175.523438 132.941406 169.867188 129.191406 164.726562 C 126.921875 161.109375 126.691406 158.417969 126.265625 154.179688 C 125.890625 152.457031 125.503906 150.734375 125.109375 149.011719 C 123.230469 139.578125 123.578125 130.734375 126.15625 121.453125 C 128.539062 115.125 132.199219 110.011719 137.097656 105.375 C 141.714844 101.675781 146.550781 98.765625 152.386719 97.589844 C 159.308594 96.964844 166.640625 96.597656 173.101562 99.519531 C 180.929688 104.40625 186.941406 110.753906 191.363281 118.820312 C 193.28125 122.847656 195.15625 126.910156 195.917969 131.328125 C 195.585938 133.652344 195.585938 133.652344 194.832031 135.679688 L 192.585938 137.789062 L 190.476562 140.035156 C 190.113281 142.9375 190.113281 142.9375 190.476562 145.476562 C 195.660156 147.839844 199.984375 148.085938 205.621094 148.019531 C 209.875 147.554688 213.121094 146.234375 216.878906 144.25 C 218.773438 143.300781 218.773438 143.300781 220.949219 143.300781 C 220.46875 140.714844 220.46875 140.714844 218.773438 137.859375 C 216.585938 136.339844 214.359375 135.074219 212 133.839844 L 210.066406 132.417969 C 207.214844 125.804688 208.539062 115.734375 209.316406 108.683594 C 210.054688 104.800781 211.003906 102.183594 213.128906 98.816406 C 217.613281 94.460938 220.976562 92.574219 227.429688 92.863281 " fill-opacity="1" fill-rule="nonzero"/><g clip-path="url(#2e25ad7153)"><path fill="#faf1df" d="M -499.519531 166.152344 L -496.253906 166.152344 C -481.019531 197.199219 -481.019531 197.199219 -481.019531 206.417969 L -478.84375 207.507812 C -474.378906 223.347656 -474.398438 244.652344 -478.367188 260.558594 C -482.863281 275.550781 -490.496094 288.148438 -501.765625 299.058594 C -508.808594 305.113281 -517.921875 310.132812 -526.726562 313.066406 L -527.816406 315.246094 C -534.511719 317.703125 -541.433594 318.890625 -548.496094 319.597656 L -551.855469 320.152344 C -571.246094 322.589844 -591.273438 321.035156 -609.390625 313.503906 C -614.765625 311.117188 -619.261719 308.320312 -623.589844 304.363281 L -625.570312 302.640625 C -632.902344 295.863281 -637.253906 287.984375 -640.253906 278.515625 C -642.171875 271.941406 -643.335938 265.71875 -643.316406 258.859375 L -643.324219 255.710938 L -643.179688 253.214844 L -642.089844 252.125 C -631.226562 252.476562 -620.9375 255.757812 -610.53125 258.65625 C -603.761719 234.027344 -599.128906 210.261719 -602.910156 184.652344 L -600.175781 184.707031 C -581.972656 185.003906 -564.25 185 -546.320312 181.386719 L -543.507812 180.839844 C -528.722656 177.875 -514.378906 173.4375 -500.609375 167.242188 Z M 189.597656 266.378906 C 192.253906 267.226562 194.949219 267.917969 197.6875 268.449219 C 201.332031 269.179688 204.535156 270.328125 207.960938 271.78125 C 212.777344 273.789062 216.824219 274.710938 222.039062 274.980469 L 224.085938 274.464844 C 226.894531 273.765625 229.5 273.695312 232.394531 273.625 L 235.953125 273.519531 L 239.722656 273.414062 C 250.652344 273.058594 261.296875 272.277344 272.101562 270.625 C 276.515625 269.964844 280.695312 269.402344 285.164062 269.539062 L 285.164062 272.800781 L 282.03125 273.414062 L 278.632812 274.980469 C 277.042969 278.816406 277.042969 278.816406 276.457031 282.597656 L 272.101562 282.597656 L 272.101562 279.332031 L 269.925781 279.332031 L 269.109375 283.550781 C 267.84375 289.3125 265.722656 294.601562 263.394531 300.007812 L 261.21875 300.007812 L 260.335938 301.894531 C 255.722656 310.695312 248.730469 317.394531 240.539062 322.863281 C 231.445312 328.335938 221.71875 334.015625 211.15625 335.921875 L 207.890625 335.921875 L 207.890625 338.097656 C 186.464844 340.914062 164.421875 340.632812 143.882812 333.542969 C 133.398438 329.183594 124.839844 322.433594 117.492188 313.8125 C 110.65625 304.34375 108.222656 292.914062 106.675781 281.507812 C 106.121094 274.035156 106.621094 268.019531 108.851562 260.832031 L 110.710938 261.03125 C 137.730469 264.207031 137.730469 264.207031 164.417969 260.132812 C 172.195312 258.699219 182.3125 263.867188 189.597656 266.378906 " fill-opacity="1" fill-rule="nonzero"/></g><path fill="#f9da81" d="M 175.558594 4.988281 L 178.507812 6.175781 L 178.507812 8.355469 L 182.113281 8.015625 C 188.460938 7.957031 193.65625 10.949219 199.183594 13.796875 L 199.183594 15.972656 L 201.359375 15.972656 L 201.359375 18.148438 L 203.199219 18.964844 C 206.195312 20.585938 208.644531 22.375 211.15625 24.679688 L 211.15625 27.941406 L 213.332031 27.941406 C 216.578125 33.328125 219.28125 37.886719 219.863281 44.265625 C 220.214844 46.082031 220.578125 47.894531 220.949219 49.707031 L 223.128906 49.707031 L 223.398438 52.835938 L 224.214844 56.238281 C 226.175781 57.40625 226.175781 57.40625 228.570312 58.414062 C 230.285156 59.476562 231.988281 60.566406 233.671875 61.679688 L 236.269531 63.378906 C 238.363281 64.945312 238.363281 64.945312 239.453125 67.121094 C 239.859375 70.25 239.859375 70.25 239.453125 73.648438 C 236.867188 76.234375 236.867188 76.234375 234.011719 78.003906 L 231.835938 78.003906 L 231.835938 80.179688 C 224.914062 83.050781 218.199219 84.542969 210.816406 85.757812 L 207.621094 86.3125 C 173.054688 92.171875 140.8125 86.285156 107.289062 77.253906 L 104.914062 76.628906 C 100.933594 75.511719 97.703125 74.386719 94.707031 71.472656 C 94.328125 68.605469 94.644531 66.339844 95.214844 63.515625 C 95.808594 60.507812 96.242188 57.503906 96.675781 54.46875 C 98.085938 45.957031 100.269531 38.085938 105.589844 31.207031 C 106.355469 28.871094 106.355469 28.871094 106.675781 26.855469 L 108.851562 26.855469 L 108.851562 23.589844 L 111.03125 23.589844 L 111.03125 21.414062 C 116.628906 16.195312 116.628906 16.195312 119.566406 15.488281 C 122.816406 14.652344 125.308594 13.011719 128.171875 11.277344 C 144.898438 1.375 156.78125 -2.21875 175.558594 4.988281 " fill-opacity="1" fill-rule="nonzero"/><path fill="#ded5d1" d="M 319.382812 187.8125 L 322.933594 187.820312 L 326.65625 187.851562 L 330.398438 187.863281 C 333.460938 187.878906 336.519531 187.894531 339.578125 187.917969 L 339.578125 190.09375 L 342.84375 190.09375 C 343.046875 192.40625 343.046875 192.40625 342.84375 195.535156 L 341.4375 198.128906 C 338.542969 203.695312 337.28125 209.902344 335.699219 215.941406 L 334.699219 219.664062 C 332.800781 226.816406 331.121094 233.964844 329.785156 241.242188 L 327.605469 241.242188 L 327.445312 244.347656 L 327.199219 248.453125 C 327.121094 249.792969 327.046875 251.128906 326.96875 252.507812 C 326.535156 256.320312 325.667969 259.425781 324.339844 263.007812 L 323.457031 266.410156 C 322.164062 269.539062 322.164062 269.539062 320.054688 271.917969 C 314.390625 275.269531 308.417969 277.015625 301.824219 277.265625 C 297.191406 276.96875 293.515625 276.152344 289.449219 273.890625 C 286.25 271.714844 286.25 271.714844 285.164062 270.625 C 283.464844 270.496094 281.765625 270.429688 280.0625 270.421875 L 277.257812 270.375 C 274.21875 270.503906 274.21875 270.503906 271.273438 271.6875 C 267.617188 272.84375 264.445312 273.238281 260.628906 273.492188 L 256.539062 273.769531 L 252.308594 274.027344 L 248.140625 274.3125 C 240.957031 274.78125 233.832031 275.074219 226.632812 274.933594 C 223.972656 274.90625 223.972656 274.90625 220.472656 275.796875 C 214.410156 276.222656 209.03125 274.207031 203.539062 271.714844 L 201.105469 269.589844 C 196.800781 266.402344 192.203125 265.394531 187.078125 264.027344 C 185.121094 263.503906 183.167969 262.96875 181.21875 262.425781 L 178.613281 261.734375 C 176.101562 260.742188 174.816406 259.589844 173.066406 257.566406 C 178.253906 256.324219 182.683594 256.179688 187.90625 257.410156 C 192.304688 258.742188 196.628906 260.292969 200.953125 261.851562 C 202.476562 262.382812 204 262.914062 205.523438 263.441406 C 209.222656 264.722656 212.914062 266.035156 216.597656 267.359375 L 216.597656 269.539062 L 218.773438 269.539062 L 217.6875 266.273438 C 218.457031 263.636719 219.320312 261.027344 220.269531 258.453125 C 222.3125 252.632812 223.710938 247.386719 224.214844 241.242188 C 225.292969 232.679688 227.160156 225.167969 230.746094 217.300781 L 234.011719 217.300781 L 234.351562 215.261719 L 235.097656 212.949219 L 238.363281 210.769531 C 238.757812 208.988281 239.113281 207.195312 239.453125 205.398438 C 240.59375 202.445312 240.59375 202.445312 242.71875 199.890625 C 249.445312 197.570312 256.335938 197.164062 263.394531 196.625 L 270.414062 196.003906 C 275.921875 195.523438 281.433594 195.097656 286.953125 194.71875 C 289.351562 194.464844 291.550781 194.007812 293.867188 193.359375 L 285.160156 193.359375 L 286.25 190.09375 L 289.238281 190.132812 C 299.550781 190.207031 309.429688 187.761719 319.386719 187.8125 " fill-opacity="1" fill-rule="nonzero"/><path fill="#ede4d4" d="M 93.617188 75.828125 C 96.472656 75.691406 96.472656 75.691406 99.058594 75.828125 L 100.148438 78.003906 L 98.472656 80.039062 C 96.097656 82.964844 93.753906 85.914062 91.441406 88.886719 L 89.636719 91.175781 C 77.273438 108.179688 74.089844 131.382812 71.222656 151.710938 C 68.402344 171.496094 64.492188 190.183594 58.375 209.214844 C 50.621094 232.410156 50.621094 232.410156 46.820312 256.480469 L 46.648438 259.003906 C 45.832031 273.132812 47.039062 287.898438 53.019531 300.910156 L 54.4375 304.363281 L 53.347656 307.628906 C 50.820312 305.640625 49.199219 303.714844 47.851562 300.792969 C 47.109375 298.882812 46.378906 296.96875 45.671875 295.042969 C 44.664062 292.238281 44.664062 292.238281 42.804688 289.261719 C 38.035156 277.910156 39.425781 261.199219 40.738281 249.042969 C 41.25 245.703125 41.828125 242.386719 42.464844 239.066406 C 42.828125 236.890625 43.191406 234.714844 43.554688 232.535156 C 43.933594 230.40625 44.320312 228.273438 44.710938 226.144531 L 45.292969 222.953125 L 45.730469 220.566406 L 47.90625 220.566406 C 49.257812 214.777344 50.417969 209.050781 51.171875 203.152344 L 53.347656 203.152344 L 54.4375 196.625 L 56.613281 196.625 C 58.1875 189.164062 59.566406 181.757812 60.070312 174.140625 C 60.476562 168.363281 61.277344 163.703125 63.542969 158.382812 C 64.660156 155.105469 64.445312 152.171875 64.230469 148.742188 L 66.410156 148.742188 L 66.371094 146.226562 C 66.265625 134.226562 67.605469 124.835938 71.679688 113.53125 C 72.933594 109.574219 73.5625 106.050781 74.027344 101.945312 L 76.203125 101.945312 L 78.378906 94.328125 L 80.558594 94.328125 L 81.375 92.535156 C 83.027344 89.421875 85.003906 86.691406 87.085938 83.851562 L 89.398438 80.679688 C 91.441406 78.003906 91.441406 78.003906 93.617188 75.828125 " fill-opacity="1" fill-rule="nonzero"/><path fill="#5c626d" d="M 129.53125 166.152344 C 133.863281 169.882812 136.183594 173.515625 138.566406 178.691406 C 139.601562 182.359375 139.652344 185.195312 139.328125 189.007812 C 138.292969 192.359375 136.941406 195.527344 135.515625 198.734375 L 134.417969 201.300781 C 133.523438 203.375 132.621094 205.441406 131.707031 207.507812 L 134.136719 208.441406 C 136.8125 209.542969 139.292969 210.773438 141.84375 212.132812 C 146.554688 214.527344 151.367188 216.402344 156.332031 218.1875 C 181.15625 227.246094 181.15625 227.246094 189.316406 236.40625 C 190.476562 237.976562 190.476562 237.976562 191.566406 240.15625 C 191.609375 242.695312 191.613281 245.234375 191.566406 247.773438 L 195.15625 247.296875 C 204.527344 246.097656 213.65625 245.265625 223.128906 245.597656 C 223.738281 247.511719 223.738281 247.511719 224.214844 249.949219 C 223.445312 252.929688 222.558594 255.878906 221.5625 258.792969 C 219.582031 264.054688 219.582031 264.054688 218.773438 269.539062 L 216.597656 269.539062 L 216.597656 267.359375 L 214.707031 266.875 C 209.601562 265.53125 204.5625 264.097656 199.570312 262.386719 L 196.867188 261.476562 C 195.089844 260.878906 193.320312 260.261719 191.554688 259.628906 C 185.265625 257.519531 180.695312 257.53125 174.152344 258.65625 L 178.246094 260.007812 L 183.609375 261.785156 L 186.300781 262.671875 C 190.652344 264.117188 194.957031 265.585938 199.183594 267.359375 L 199.183594 268.449219 C 193.738281 268.273438 189.046875 267.753906 183.980469 265.71875 C 173.886719 261.652344 173.886719 261.652344 163.140625 261.128906 C 158.535156 261.8125 153.972656 262.742188 149.40625 263.660156 C 137 265.855469 121.019531 264.332031 108.855469 260.832031 L 107.765625 268.449219 L 105.589844 268.449219 C 104.363281 262.328125 104.363281 262.328125 105.589844 258.65625 L 103.21875 258.234375 C 100.179688 257.574219 97.410156 256.699219 94.5 255.59375 L 91.664062 254.550781 C 89.265625 253.214844 89.265625 253.214844 87.847656 250.886719 L 87.085938 248.859375 C 91.273438 249.546875 94.78125 250.8125 98.652344 252.535156 C 115.367188 259.648438 132.976562 261.496094 150.988281 259.398438 C 162.542969 257.644531 173.222656 254.578125 183.949219 249.949219 L 187.210938 248.859375 C 187.414062 247.367188 187.574219 245.871094 187.691406 244.371094 L 187.957031 241.847656 C 187.433594 239.074219 187.433594 239.074219 185.777344 237.425781 C 181.34375 233.4375 176.644531 230.734375 171.226562 228.320312 L 168.839844 227.21875 C 163.523438 224.808594 158.128906 222.652344 152.683594 220.558594 C 142.945312 216.8125 134.585938 212.835938 126.265625 206.417969 L 123.460938 204.277344 C 120.921875 202.148438 118.816406 199.960938 116.675781 197.441406 L 114.679688 195.109375 L 113.207031 193.359375 L 116.472656 192.269531 L 118.460938 194.335938 L 121.097656 197.03125 L 123.699219 199.710938 C 125.976562 201.796875 127.792969 203.0625 130.621094 204.242188 L 130.960938 201.453125 C 131.707031 197.710938 131.707031 197.710938 133.410156 194.175781 C 135.195312 190.132812 135.558594 186.484375 135.449219 182.082031 C 134.734375 177.765625 132.871094 174.3125 130.722656 170.539062 C 129.53125 168.328125 129.53125 168.328125 129.53125 166.152344 " fill-opacity="1" fill-rule="nonzero"/><path fill="#363643" d="M 232.921875 91.0625 C 237.867188 93.484375 241.707031 97.101562 245.246094 101.285156 C 250.40625 109.308594 253.023438 119.703125 253.601562 129.152344 L 251.425781 129.152344 L 250.425781 125.6875 C 246.566406 111.769531 246.566406 111.769531 238.617188 99.945312 C 235.648438 97.289062 233.472656 95.597656 229.65625 94.328125 C 226.535156 94.070312 224.007812 93.914062 220.949219 94.328125 C 217.265625 95.9375 217.265625 95.9375 214.421875 98.679688 C 211.699219 102.996094 210.730469 106.726562 210.066406 111.738281 C 209.96875 114.503906 209.925781 117.269531 209.933594 120.039062 L 209.921875 124.296875 C 210.019531 128.480469 210.019531 128.480469 211.15625 132.417969 C 212.835938 133.789062 212.835938 133.789062 214.898438 134.730469 C 217.433594 136.011719 218.902344 136.898438 220.949219 138.945312 L 220.949219 143.300781 C 219.570312 144.003906 218.1875 144.707031 216.800781 145.40625 L 214.46875 146.59375 C 210.363281 148.546875 207.089844 148.917969 202.585938 148.945312 L 199.191406 148.992188 C 195.839844 148.734375 193.492188 148.015625 190.476562 146.5625 L 189.390625 145.476562 C 188.980469 143.027344 188.980469 143.027344 189.390625 140.035156 L 192.246094 137.652344 L 194.832031 134.59375 C 195.109375 128.445312 192.460938 122.890625 189.730469 117.519531 C 185.792969 110.753906 181.226562 105.578125 174.492188 101.535156 C 168.320312 98.507812 162.917969 98.308594 156.078125 98.378906 C 149.707031 98.898438 144.753906 101.019531 139.367188 104.355469 C 133.496094 108.78125 130.261719 114.890625 127.355469 121.535156 C 124.382812 129.988281 124.347656 138.933594 125.914062 147.691406 C 126.683594 151.683594 127.542969 155.65625 128.441406 159.621094 L 125.179688 158.535156 C 121.269531 150.6875 121.246094 141.253906 121.539062 132.664062 C 122.03125 124.863281 123.914062 117.746094 128.023438 111.058594 C 129.855469 108.589844 131.769531 106.351562 133.886719 104.121094 L 136.742188 101.0625 C 142.359375 96.714844 150.054688 95.132812 156.917969 93.90625 C 163.925781 93.472656 171.113281 95.847656 177.417969 98.679688 C 183.792969 103.179688 188.640625 108.3125 192.65625 115.003906 C 193.734375 117.582031 194.730469 120.1875 195.648438 122.828125 L 197.058594 126.816406 C 198.097656 130.238281 198.097656 130.238281 198.097656 133.503906 L 206.800781 131.328125 L 206.734375 129.421875 C 206.03125 107.074219 206.03125 107.074219 209.769531 98.722656 C 211.992188 95.167969 214.117188 93.292969 217.6875 91.0625 C 222.773438 89.363281 227.742188 90.023438 232.921875 91.0625 " fill-opacity="1" fill-rule="nonzero"/><path fill="#ec937b" d="M 321.078125 247.773438 C 324.273438 249.40625 324.273438 249.40625 326.519531 251.039062 C 326.191406 253.582031 325.828125 256.121094 325.429688 258.65625 C 325.320312 259.480469 325.214844 260.300781 325.105469 261.152344 C 324.679688 263.707031 324.148438 266.015625 323.253906 268.449219 C 320.289062 271.945312 318.207031 273.292969 314.015625 274.980469 C 308.007812 276.882812 302.621094 277.605469 296.367188 276.699219 C 292.375 275.6875 289.617188 274.101562 286.25 271.714844 L 284.074219 268.449219 L 287.339844 267.359375 C 288.6875 265.515625 288.6875 265.515625 289.855469 263.28125 C 293.21875 257.660156 297.589844 254.175781 303.121094 250.765625 C 309.015625 247.816406 314.523438 247.296875 321.078125 247.773438 " fill-opacity="1" fill-rule="nonzero"/><path fill="#efc592" d="M 109.941406 346.804688 L 112.425781 347.679688 C 129.007812 353.195312 145.941406 353.746094 163.269531 354.421875 L 163.269531 356.597656 L 165.445312 356.597656 C 166.332031 358.980469 166.332031 358.980469 166.535156 362.039062 C 164.019531 365.101562 164.019531 365.101562 161.09375 367.480469 L 158.917969 367.480469 L 158.917969 369.65625 C 146.878906 370.359375 137.359375 369.523438 126.265625 364.214844 L 124.089844 362.039062 C 121.839844 361.339844 121.839844 361.339844 119.738281 360.953125 L 119.738281 358.777344 L 116.472656 358.777344 L 116.472656 355.511719 L 114.5 355.171875 C 112.117188 354.421875 112.117188 354.421875 110.144531 352.996094 L 108.851562 351.15625 C 109.316406 348.867188 109.316406 348.867188 109.941406 346.804688 " fill-opacity="1" fill-rule="nonzero"/><path fill="#eac291" d="M 242.105469 336.03125 C 246.285156 336.886719 249.570312 337.574219 253.125 340.003906 C 255.03125 342.988281 255.457031 345.476562 255.777344 348.980469 C 251.539062 351.988281 247.613281 353.007812 242.597656 353.953125 L 240.539062 354.421875 L 239.453125 355.511719 C 235.464844 355.660156 232.371094 355.691406 228.570312 354.421875 C 226.691406 354.183594 224.808594 353.980469 222.925781 353.8125 L 219.953125 353.535156 L 217.6875 353.335938 L 217.6875 351.15625 L 214.011719 350.75 L 210.066406 350.070312 L 207.890625 347.894531 L 210.066406 345.714844 C 212.164062 345.21875 212.164062 345.21875 214.761719 344.832031 C 222.53125 343.417969 230.492188 340.757812 237.351562 336.796875 C 239.453125 335.921875 239.453125 335.921875 242.105469 336.03125 " fill-opacity="1" fill-rule="nonzero"/><g clip-path="url(#0cea10779c)"><path fill="#faf1df" d="M 135.007812 9.570312 C 137.953125 10.125 140.804688 10.777344 143.679688 11.617188 L 142.589844 13.796875 C 140.488281 14.253906 140.488281 14.253906 137.761719 14.613281 C 131.148438 15.847656 126.152344 18.421875 120.824219 22.5 C 112.667969 30.101562 107.683594 38.570312 104.226562 49.097656 C 102.6875 54.371094 101.832031 59.359375 101.46875 64.832031 C 101.179688 67.667969 100.328125 70.019531 99.058594 72.5625 L 102.324219 73.648438 L 99.058594 74.738281 C 96.679688 73.515625 96.679688 73.515625 94.707031 71.472656 C 94.328125 68.605469 94.644531 66.339844 95.214844 63.515625 C 95.808594 60.507812 96.242188 57.503906 96.675781 54.46875 C 98.085938 45.957031 100.269531 38.085938 105.589844 31.207031 C 106.355469 28.871094 106.355469 28.871094 106.675781 26.855469 L 108.851562 26.855469 L 108.851562 23.589844 L 111.03125 23.589844 L 111.03125 21.414062 C 116.617188 16.207031 116.617188 16.207031 119.683594 15.445312 C 122.363281 14.769531 124.058594 13.511719 126.335938 11.957031 C 129.550781 10.082031 131.253906 9.425781 135.007812 9.570312 M -442.925781 94.328125 C -439.199219 93.863281 -435.761719 93.695312 -432.042969 94.328125 C -429.085938 96.410156 -427.285156 98.8125 -425.515625 101.945312 C -424.5625 104.597656 -424.5625 104.597656 -424.425781 107.386719 L -424.214844 111.164062 C -424.222656 117.085938 -425.96875 122.445312 -427.691406 128.0625 L -428.632812 131.246094 C -429.398438 133.816406 -430.171875 136.382812 -430.957031 138.945312 L -433.132812 138.945312 C -432.550781 133.835938 -431.804688 128.863281 -430.730469 123.835938 C -429.160156 116.367188 -428.207031 109.496094 -429.867188 101.945312 L -430.957031 98.679688 C -439.519531 99.738281 -445.722656 102.382812 -452.722656 107.386719 C -455.949219 109.890625 -459.125 112.460938 -462.304688 115.023438 C -468.636719 120.054688 -475.222656 124.121094 -483.195312 125.886719 C -482.105469 122.621094 -482.105469 122.621094 -480.609375 120.785156 L -478.84375 119.355469 L -475.578125 119.355469 L -474.691406 117.25 L -473.402344 115.003906 L -470.136719 113.914062 L -469.046875 110.652344 C -467.195312 109.546875 -465.339844 108.453125 -463.445312 107.433594 C -460.695312 105.882812 -458.347656 104.027344 -455.988281 101.945312 L -454.898438 99.769531 C -451.570312 97.800781 -449.125 96.550781 -445.238281 96.300781 L -442.925781 96.503906 Z M -442.925781 94.328125 " fill-opacity="1" fill-rule="nonzero"/></g><path fill="#dfd6d2" d="M 220.949219 247.773438 C 220.378906 254.160156 219.035156 259.253906 216.597656 265.183594 C 205.886719 262.496094 195.484375 258.941406 185.035156 255.390625 L 186.125 252.125 C 189.710938 249.734375 191.292969 249.566406 195.507812 249.261719 L 199.136719 248.984375 L 202.925781 248.726562 L 206.703125 248.441406 C 211.46875 248.089844 216.171875 247.773438 220.949219 247.773438 " fill-opacity="1" fill-rule="nonzero"/><path fill="#ddd5d2" d="M 251.425781 130.238281 L 254.6875 130.238281 C 254.882812 141.136719 255.054688 151.570312 252.9375 162.300781 C 252.140625 167.46875 252.679688 172.234375 254.410156 177.15625 C 255.164062 178.957031 256.007812 180.722656 256.867188 182.476562 L 262.308594 182.476562 L 264.484375 178.125 L 267.75 179.210938 C 268.78125 181.9375 268.78125 181.9375 269.585938 185.265625 L 270.414062 188.601562 L 271.015625 191.183594 L 277.542969 191.183594 L 276.457031 193.359375 C 270.371094 194.585938 264.210938 194.742188 258.023438 194.992188 C 251.410156 195.261719 244.921875 195.710938 238.363281 196.625 L 238.363281 198.800781 L 236.1875 198.800781 L 237.277344 194.449219 C 238.910156 194.105469 240.539062 193.761719 242.171875 193.425781 L 244.929688 192.851562 C 248.894531 192.136719 252.863281 191.65625 256.867188 191.183594 L 255.476562 187.917969 C 254.871094 186.464844 254.269531 185.015625 253.667969 183.566406 L 252.753906 181.425781 C 250.242188 175.316406 248.839844 169.648438 249.617188 162.972656 L 250.269531 159.894531 C 252 150.058594 251.601562 140.1875 251.425781 130.238281 " fill-opacity="1" fill-rule="nonzero"/><path fill="#5d636e" d="M 170.207031 95.890625 C 177.875 98.394531 182.945312 102.542969 188.300781 108.472656 C 189.972656 110.503906 191.425781 112.679688 192.65625 115.003906 L 192.65625 117.179688 L 189.390625 117.179688 C 187.910156 115.503906 187.910156 115.503906 186.398438 113.234375 C 182.28125 107.511719 177.804688 102.84375 171.296875 99.90625 C 165.132812 97.910156 158.773438 97.996094 152.386719 98.679688 C 146.039062 100.242188 140.410156 103.023438 135.625 107.507812 C 133.308594 110.253906 131.324219 113.222656 129.675781 116.417969 C 128.027344 119.613281 126.753906 122.949219 125.859375 126.429688 C 123.890625 137.90625 125.910156 148.445312 128.441406 159.621094 L 125.179688 158.535156 C 121.269531 150.6875 121.246094 141.253906 121.539062 132.664062 C 122.03125 124.863281 123.914062 117.746094 128.023438 111.058594 C 129.855469 108.589844 131.769531 106.351562 133.886719 104.121094 L 136.742188 101.0625 C 146.425781 93.566406 158.929688 93.039062 170.207031 95.890625 " fill-opacity="1" fill-rule="nonzero"/><path fill="#363643" d="M 94.707031 61.679688 L 96.882812 61.679688 L 95.792969 71.472656 C 103.242188 75.066406 110.464844 77.261719 118.511719 79.089844 L 122.117188 79.929688 C 125.671875 80.75 129.234375 81.554688 132.796875 82.355469 L 135.878906 83.054688 C 150.523438 86.378906 150.523438 86.378906 165.445312 87.796875 L 167.652344 87.863281 C 183.09375 88.269531 198.257812 87.316406 213.355469 83.84375 C 215.507812 83.445312 215.507812 83.445312 219.863281 83.445312 L 219.863281 85.621094 C 217.824219 86.128906 215.78125 86.625 213.742188 87.117188 L 210.296875 87.957031 C 179.414062 94.601562 148.6875 91.414062 118.691406 82.53125 C 114.632812 81.335938 110.542969 80.390625 106.40625 79.5 C 101.675781 78.453125 97.769531 77.230469 93.617188 74.738281 L 93.617188 72.5625 L 91.441406 72.5625 C 92.257812 65.351562 92.257812 65.351562 94.707031 61.679688 " fill-opacity="1" fill-rule="nonzero"/><path fill="#5d636e" d="M 104.5 272.800781 L 106.675781 272.800781 L 107.238281 276.867188 C 110.03125 296.519531 110.03125 296.519531 118.917969 314.058594 C 125.90625 322.390625 134.710938 328.96875 144.878906 332.859375 C 157.96875 337.109375 170.503906 338.429688 184.21875 338.234375 L 188.289062 338.203125 C 191.558594 338.179688 194.828125 338.144531 198.097656 338.097656 L 199.183594 340.273438 C 186.445312 344.519531 168.023438 342.21875 154.878906 339.855469 C 142.820312 337.261719 131.875 331.933594 122.660156 323.746094 C 117.09375 318.335938 113.050781 313.46875 110.351562 306.128906 L 109.015625 302.570312 C 106.566406 295.425781 105.214844 289.082031 104.90625 281.574219 L 104.78125 279.007812 C 104.679688 276.941406 104.585938 274.871094 104.5 272.800781 " fill-opacity="1" fill-rule="nonzero"/><path fill="#e4ddcf" d="M 319.382812 187.8125 L 322.933594 187.820312 L 326.65625 187.851562 L 330.398438 187.863281 C 333.460938 187.878906 336.519531 187.894531 339.578125 187.917969 L 339.578125 190.09375 L 342.84375 190.09375 C 342.980469 192.613281 342.980469 192.613281 342.84375 195.535156 L 340.667969 198.800781 C 337.808594 199.003906 337.808594 199.003906 335.226562 198.800781 L 334.136719 194.449219 L 298.222656 194.449219 L 298.222656 192.269531 L 285.160156 193.359375 L 286.25 190.09375 L 289.238281 190.132812 C 299.550781 190.207031 309.429688 187.761719 319.386719 187.8125 " fill-opacity="1" fill-rule="nonzero"/><path fill="#f7cb95" d="M 212.246094 135.679688 C 214.71875 136.929688 216.589844 138.296875 218.773438 140.035156 C 216.640625 142.40625 214.832031 144.183594 211.960938 145.605469 C 208.585938 146.691406 205.847656 146.816406 202.3125 146.765625 L 198.902344 146.746094 C 195.917969 146.5625 195.917969 146.5625 192.65625 145.476562 L 191.566406 142.210938 C 193.265625 139.421875 193.265625 139.421875 195.917969 136.769531 C 201.304688 134.015625 206.496094 134.214844 212.246094 135.679688 " fill-opacity="1" fill-rule="nonzero"/><path fill="#5d636e" d="M 232.921875 91.0625 C 237.867188 93.484375 241.707031 97.101562 245.246094 101.285156 C 250.40625 109.308594 253.023438 119.703125 253.601562 129.152344 L 251.425781 129.152344 L 250.425781 125.6875 C 246.566406 111.769531 246.566406 111.769531 238.617188 99.945312 C 235.648438 97.289062 233.472656 95.597656 229.65625 94.328125 C 226.539062 94.070312 224.007812 93.921875 220.949219 94.328125 C 217.484375 95.996094 215.25 97.480469 213.050781 100.664062 C 211.984375 102.503906 211.019531 104.398438 210.066406 106.296875 L 207.890625 106.296875 C 209.96875 97.929688 209.96875 97.929688 212.675781 94.679688 C 214.863281 92.800781 216.992188 91.296875 219.738281 90.371094 C 224.195312 89.605469 228.515625 90.179688 232.921875 91.0625 " fill-opacity="1" fill-rule="nonzero"/><path fill="#faf1df" d="M 285.164062 223.421875 C 287.898438 223.542969 289.28125 223.699219 291.691406 225.054688 C 292.78125 227.09375 292.78125 227.09375 293.394531 230.222656 L 292.78125 233.625 C 289.921875 236.824219 289.921875 236.824219 286.25 239.066406 C 282.78125 239.203125 282.78125 239.203125 279.71875 237.976562 C 277.613281 235.53125 277.613281 235.53125 276.457031 232.535156 C 276.601562 229.507812 277.175781 227.722656 278.699219 225.125 C 281.089844 223.660156 282.390625 223.539062 285.164062 223.421875 " fill-opacity="1" fill-rule="nonzero"/><path fill="#e1d9cb" d="M 163.269531 0.734375 C 168.472656 2.277344 173.472656 4.148438 178.507812 6.175781 L 178.507812 9.441406 L 180.34375 10.054688 C 184.023438 12.339844 185.960938 15.652344 188.300781 19.238281 C 185.101562 17.765625 182.542969 16.082031 179.867188 13.796875 L 177.84375 12.09375 L 176.328125 10.53125 L 176.328125 8.355469 C 169.683594 6.492188 162.539062 5.398438 155.652344 6.175781 C 153.980469 6.699219 152.328125 7.269531 150.6875 7.878906 C 147.332031 9.125 144.988281 9.632812 141.4375 9.101562 L 138.238281 8.355469 L 139.328125 5.089844 C 141.460938 4.09375 141.460938 4.09375 144.089844 3.320312 L 146.699219 2.53125 L 149.121094 1.824219 C 153.945312 0.214844 158.226562 0.128906 163.269531 0.734375 " fill-opacity="1" fill-rule="nonzero"/><path fill="#393946" d="M 111.03125 346.804688 C 116.519531 347.25 121.898438 347.820312 127.289062 348.980469 C 148.214844 353.308594 170.394531 351.09375 191.566406 350.070312 L 190.476562 352.246094 C 188.054688 352.691406 188.054688 352.691406 184.894531 352.933594 L 181.484375 353.210938 L 177.894531 353.46875 L 174.292969 353.753906 C 171.34375 353.988281 168.394531 354.210938 165.445312 354.421875 L 165.445312 356.597656 L 163.269531 356.597656 L 163.269531 354.421875 L 159.3125 354.535156 C 149.152344 354.738281 139.261719 354.414062 129.191406 352.992188 L 126.34375 352.605469 C 120.761719 351.753906 116.117188 350.34375 111.03125 347.894531 Z M 111.03125 346.804688 " fill-opacity="1" fill-rule="nonzero"/><path fill="#595f6a" d="M 56.613281 314.15625 C 58.453125 314.355469 58.453125 314.355469 60.96875 315.246094 C 62.824219 317.019531 64.613281 318.855469 66.339844 320.753906 C 78.320312 333.3125 93.6875 339.457031 109.941406 344.628906 L 109.941406 347.894531 C 104.699219 347.0625 99.878906 345.265625 94.910156 343.472656 L 92.308594 342.542969 C 90.203125 341.789062 88.101562 341.035156 86 340.273438 L 86 338.097656 L 84.296875 337.828125 C 80.507812 336.660156 77.429688 334.6875 74.027344 332.65625 L 74.027344 330.480469 L 70.761719 330.480469 L 70.761719 328.304688 L 68.585938 328.304688 L 68.585938 326.128906 L 66.664062 325.316406 C 63.855469 323.738281 62.230469 321.980469 60.152344 319.53125 L 58.125 317.179688 L 56.613281 315.246094 Z M 56.613281 314.15625 " fill-opacity="1" fill-rule="nonzero"/><path fill="#4e5055" d="M 223.128906 245.597656 C 223.738281 247.511719 223.738281 247.511719 224.214844 249.949219 C 223.445312 252.929688 222.558594 255.878906 221.5625 258.792969 C 219.582031 264.054688 219.582031 264.054688 218.773438 269.539062 L 216.597656 269.539062 L 216.597656 267.359375 L 214.171875 266.761719 C 203.621094 264.046875 203.621094 264.046875 199.183594 260.832031 L 202.449219 259.742188 C 205.3125 260.589844 205.3125 260.589844 208.503906 261.851562 C 212.445312 263.523438 212.445312 263.523438 216.597656 264.097656 L 220.949219 247.773438 L 213.671875 248.859375 C 205.917969 249.957031 198.3125 250.1875 190.476562 249.949219 L 190.476562 247.773438 C 201.394531 246.414062 212.097656 245.207031 223.128906 245.597656 " fill-opacity="1" fill-rule="nonzero"/><path fill="#0c090c" d="M 261.21875 300.007812 L 263.394531 300.007812 C 262.734375 304.058594 260.980469 306.429688 258.429688 309.601562 C 247.160156 323.175781 233.015625 330.511719 216.898438 336.976562 C 213.628906 338.007812 211.28125 338.355469 207.890625 338.097656 L 207.890625 335.921875 L 210.886719 335.039062 C 225.605469 330.449219 240.367188 324.160156 251.425781 313.066406 C 254.21875 309.691406 256.75 306.160156 259.246094 302.558594 Z M 261.21875 300.007812 " fill-opacity="1" fill-rule="nonzero"/><path fill="#0c090c" d="M 136.0625 6.175781 L 138.238281 6.175781 L 138.238281 8.355469 L 141.367188 8.421875 C 146.410156 9.183594 150.007812 11.652344 154.03125 14.675781 C 162.800781 22.398438 167.085938 31.945312 170.855469 42.738281 C 171.976562 46.445312 171.976562 46.445312 171.976562 49.707031 L 169.800781 49.707031 L 168.601562 46.242188 C 164.78125 35.46875 160.988281 26.226562 152.453125 18.285156 C 147.304688 14.054688 142.769531 12.027344 136.128906 10.871094 L 132.796875 10.53125 C 134.292969 8.355469 134.292969 8.355469 136.0625 6.175781 " fill-opacity="1" fill-rule="nonzero"/><path fill="#5a585f" d="M 247.070312 327.214844 L 251.425781 327.214844 L 249.246094 338.097656 L 245.015625 337.285156 C 240.839844 336.824219 238.019531 337.234375 234.125 338.808594 C 232.332031 339.613281 230.546875 340.445312 228.773438 341.296875 C 226.976562 342.128906 225.179688 342.953125 223.378906 343.773438 L 221.011719 344.898438 C 218.773438 345.714844 218.773438 345.714844 214.421875 345.714844 L 214.421875 343.539062 L 217.496094 342.378906 C 233.433594 336.675781 233.433594 336.675781 247.070312 327.214844 " fill-opacity="1" fill-rule="nonzero"/><path fill="#5d636e" d="M 251.425781 130.238281 L 254.6875 130.238281 C 255.066406 151.375 255.066406 151.375 253.535156 159.285156 C 252.15625 166.429688 252.515625 171.710938 254.894531 178.609375 C 256.21875 182.097656 257.601562 185.5625 259.042969 189.007812 L 256.867188 190.09375 C 249.246094 173.507812 249.246094 173.507812 249.246094 166.152344 C 249.746094 162.855469 250.324219 159.578125 250.902344 156.292969 C 251.953125 147.660156 251.578125 138.925781 251.425781 130.238281 " fill-opacity="1" fill-rule="nonzero"/><path fill="#363643" d="M 273.191406 269.539062 L 272.101562 271.714844 C 257.296875 275.011719 241.476562 274.554688 226.390625 274.980469 L 226.390625 272.800781 C 234.785156 271.550781 242.871094 270.414062 251.371094 270.621094 C 253.765625 270.691406 253.765625 270.691406 256.730469 270.082031 C 262.1875 269.207031 267.675781 269.457031 273.191406 269.539062 " fill-opacity="1" fill-rule="nonzero"/><path fill="#1d1b22" d="M 188.300781 72.5625 L 188.300781 74.738281 C 177.257812 76.632812 166.441406 77.125 155.242188 77.121094 L 151.261719 77.121094 C 141.796875 77.0625 141.796875 77.0625 139.328125 75.828125 L 139.328125 73.648438 L 141.953125 73.667969 C 145.929688 73.6875 149.90625 73.707031 153.882812 73.71875 L 158.011719 73.746094 C 164.875 73.761719 171.605469 73.636719 178.421875 72.804688 C 181.730469 72.449219 184.976562 72.488281 188.300781 72.5625 " fill-opacity="1" fill-rule="nonzero"/><path fill="#0c090c" d="M 94.707031 61.679688 L 96.882812 61.679688 L 95.792969 71.472656 C 102.570312 74.800781 109.191406 76.9375 116.507812 78.660156 C 118.324219 79.105469 120.121094 79.636719 121.914062 80.179688 L 123 82.355469 C 113.023438 81.378906 102.328125 79.964844 93.617188 74.738281 L 93.617188 72.5625 L 91.441406 72.5625 C 92.257812 65.351562 92.257812 65.351562 94.707031 61.679688 " fill-opacity="1" fill-rule="nonzero"/><path fill="#121014" d="M 188.300781 10.53125 C 192.347656 11.082031 195.632812 11.746094 199.183594 13.796875 L 199.183594 15.972656 L 201.359375 15.972656 L 201.359375 18.148438 L 203.199219 18.964844 C 206.195312 20.585938 208.644531 22.375 211.15625 24.679688 L 211.15625 27.941406 L 213.332031 27.941406 C 214.273438 29.5 215.203125 31.066406 216.121094 32.636719 L 217.6875 35.277344 L 218.773438 37.738281 L 217.6875 41.003906 C 215.085938 38.636719 214.242188 37.316406 212.789062 33.929688 C 209.480469 27.070312 203.792969 21.960938 198.097656 17.058594 C 194.9375 14.957031 191.765625 13.167969 188.300781 11.617188 Z M 188.300781 10.53125 " fill-opacity="1" fill-rule="nonzero"/><path fill="#4e5055" d="M 228.570312 122.621094 C 231.835938 122.28125 231.835938 122.28125 235.097656 122.621094 L 237.277344 125.886719 C 236.9375 129.289062 236.9375 129.289062 236.1875 132.417969 L 235.097656 133.503906 C 231.902344 133.777344 231.902344 133.777344 228.570312 133.503906 C 226.390625 130.238281 226.390625 130.238281 226.121094 127.453125 L 226.390625 124.796875 Z M 228.570312 122.621094 " fill-opacity="1" fill-rule="nonzero"/><g clip-path="url(#0aad61b1a3)"><path fill="#5d636e" d="M -476.664062 591.664062 C -471.359375 593.703125 -471.359375 593.703125 -470.136719 594.929688 C -470.476562 598.671875 -470.476562 598.671875 -471.222656 602.546875 L -473.402344 604.722656 C -476.257812 604.316406 -476.257812 604.316406 -478.84375 603.636719 C -479.589844 600.097656 -479.589844 600.097656 -479.929688 596.015625 C -478.367188 593.363281 -478.367188 593.363281 -476.664062 591.664062 M 254.6875 819.113281 L 255.777344 821.289062 C 258.078125 822.273438 258.078125 822.273438 260.742188 823.054688 C 261.640625 823.339844 262.542969 823.621094 263.46875 823.917969 L 265.574219 824.554688 L 265.574219 825.640625 C 264.03125 825.484375 262.488281 825.328125 260.945312 825.164062 L 258.347656 824.898438 C 255.777344 824.554688 255.777344 824.554688 253.808594 823.933594 C 250.804688 823.34375 248.53125 823.757812 245.523438 824.308594 L 242.144531 824.917969 L 238.636719 825.574219 L 235.078125 826.21875 C 232.179688 826.742188 229.285156 827.277344 226.390625 827.816406 L 226.390625 824.554688 L 230.09375 823.914062 C 238.339844 822.484375 246.546875 821.035156 254.6875 819.113281 M 162.179688 130.238281 C 164.902344 129.898438 164.902344 129.898438 167.621094 130.238281 L 169.800781 133.503906 C 169.390625 137.519531 169.390625 137.519531 168.710938 141.121094 C 166.808594 141.871094 166.808594 141.871094 164.359375 142.210938 C 161.910156 141.054688 161.910156 141.054688 160.003906 138.945312 C 159.597656 135.613281 159.597656 135.613281 160.003906 132.417969 Z M -410.277344 604.722656 C -407.488281 605.0625 -407.488281 605.0625 -404.835938 605.8125 L -403.746094 606.898438 C -403.542969 610.640625 -403.542969 610.640625 -403.746094 614.519531 L -405.925781 616.695312 C -408.78125 616.832031 -408.78125 616.832031 -411.367188 616.695312 C -412.523438 614.859375 -412.523438 614.859375 -413.542969 612.339844 C -413.269531 609.484375 -413.269531 609.484375 -412.453125 606.898438 Z M -410.277344 604.722656 " fill-opacity="1" fill-rule="nonzero"/></g><path fill="#0c090c" d="M 54.4375 196.625 L 56.613281 196.625 C 54.960938 204.574219 52.800781 212.308594 50.492188 220.089844 L 49.421875 223.730469 C 48.554688 226.667969 47.6875 229.601562 46.820312 232.535156 L 43.554688 232.535156 L 45.730469 220.566406 L 47.90625 220.566406 C 49.257812 214.777344 50.417969 209.050781 51.171875 203.152344 L 53.347656 203.152344 Z M 54.4375 196.625 " fill-opacity="1" fill-rule="nonzero"/><path fill="#424350" d="M 277.542969 191.183594 L 276.457031 193.359375 C 270.371094 194.585938 264.210938 194.742188 258.023438 194.992188 C 251.410156 195.261719 244.921875 195.710938 238.363281 196.625 L 238.363281 198.800781 L 236.1875 198.800781 L 237.277344 194.449219 C 244.207031 192.773438 250.921875 191.972656 258.023438 191.589844 L 260.472656 191.460938 C 266.167969 191.1875 271.84375 191.148438 277.542969 191.183594 " fill-opacity="1" fill-rule="nonzero"/><path fill="#141116" d="M 178.507812 8.355469 L 187.210938 8.355469 L 188.300781 10.53125 L 183.949219 9.441406 L 185.660156 11.441406 C 191.214844 18.113281 196.601562 24.976562 198.667969 33.585938 C 198.980469 35.695312 198.980469 35.695312 199.183594 38.824219 L 197.007812 38.824219 L 196.285156 36.828125 C 192.191406 26.019531 186.707031 16.554688 178.507812 8.355469 " fill-opacity="1" fill-rule="nonzero"/><path fill="#2f2f3a" d="M 220.949219 248.859375 L 223.128906 248.859375 C 222.59375 254.722656 221.464844 259.777344 219.449219 265.3125 C 218.660156 267.347656 218.660156 267.347656 218.773438 269.539062 L 216.597656 269.539062 L 216.597656 267.359375 L 214.171875 266.761719 C 203.621094 264.046875 203.621094 264.046875 199.183594 260.832031 L 202.449219 259.742188 C 205.3125 260.589844 205.3125 260.589844 208.503906 261.851562 C 212.445312 263.523438 212.445312 263.523438 216.597656 264.097656 Z M 220.949219 248.859375 " fill-opacity="1" fill-rule="nonzero"/><path fill="#141116" d="M 306.929688 248.859375 C 309.332031 249.292969 309.332031 249.292969 311.28125 249.949219 L 308.179688 251.746094 C 300.816406 256.152344 294.890625 259.894531 290.515625 267.527344 L 289.515625 269.539062 L 288.425781 271.714844 L 284.074219 269.539062 L 285.976562 267.769531 C 288.542969 265.226562 288.542969 265.226562 290.46875 261.988281 C 294.667969 255.933594 300.367188 252.019531 306.929688 248.859375 " fill-opacity="1" fill-rule="nonzero"/><path fill="#3c3d47" d="M 162.179688 338.097656 L 198.097656 338.097656 L 199.183594 340.273438 C 193.609375 342.132812 187.742188 341.566406 181.90625 341.566406 L 178 341.609375 L 174.230469 341.613281 L 170.785156 341.628906 C 167.519531 341.355469 165.140625 340.5625 162.179688 339.1875 Z M 162.179688 338.097656 " fill-opacity="1" fill-rule="nonzero"/><path fill="#5d636e" d="M 124.089844 360.953125 C 128.222656 361.679688 132.027344 362.855469 135.992188 364.214844 C 143.609375 366.621094 150.964844 367.242188 158.917969 367.480469 L 158.917969 369.65625 C 148.042969 370.292969 139.480469 369.625 129.199219 365.726562 C 126.265625 364.214844 126.265625 364.214844 124.089844 360.953125 " fill-opacity="1" fill-rule="nonzero"/><g clip-path="url(#9e8c3989b6)"><path fill="#0c090c" d="M 189.390625 141.121094 L 191.566406 141.121094 L 192.65625 145.476562 C 195.261719 145.535156 197.867188 145.578125 200.476562 145.613281 L 202.699219 145.664062 C 207.164062 145.710938 210.371094 145.125 214.421875 143.300781 L 217.6875 143.300781 L 217.6875 145.476562 C 211.277344 148.433594 206.039062 149.09375 199 149.066406 C 195.753906 148.722656 193.371094 148.078125 190.476562 146.5625 C 189.59375 143.707031 189.59375 143.707031 189.390625 141.121094 M -829.28125 673.285156 L -827.105469 673.285156 C -827.65625 679.304688 -829.234375 683.6875 -832.070312 688.996094 L -833.160156 691.09375 C -834.035156 692.777344 -834.917969 694.460938 -835.8125 696.136719 L -837.988281 696.136719 C -837.429688 691.644531 -835.757812 688.265625 -833.695312 684.316406 C -831.929688 680.738281 -830.625 677.039062 -829.28125 673.285156 " fill-opacity="1" fill-rule="nonzero"/></g><path fill="#0c090c" d="M 219.863281 61.679688 L 219.863281 63.855469 C 200.644531 73.046875 200.644531 73.046875 192.65625 72.5625 L 192.65625 70.386719 L 195.679688 69.585938 C 203.171875 67.539062 212.542969 61.679688 219.863281 61.679688 " fill-opacity="1" fill-rule="nonzero"/><g clip-path="url(#f3a76f57e1)"><path fill="#363643" d="M 171.976562 259.742188 C 177.9375 260.449219 183.5 261.785156 189.253906 263.484375 L 191.796875 264.199219 C 193.917969 264.820312 196.011719 265.539062 198.097656 266.273438 L 199.183594 268.449219 C 189.925781 268.214844 181.484375 265.679688 173.066406 261.917969 Z M -728.070312 210.769531 L -725.890625 210.769531 C -726.492188 215.75 -728.660156 219.363281 -731.332031 223.492188 C -734.210938 227.921875 -734.210938 227.921875 -736.773438 232.535156 L -738.953125 232.535156 C -738.382812 229.53125 -737.746094 226.742188 -736.773438 223.832031 L -734.597656 223.832031 L -734.328125 221.382812 C -733.511719 218.390625 -733.511719 218.390625 -731.332031 216.078125 L -729.15625 214.035156 Z M -728.070312 210.769531 " fill-opacity="1" fill-rule="nonzero"/></g><path fill="#0c090c" d="M 63.144531 157.445312 L 65.320312 157.445312 C 64.839844 165.644531 64.078125 173.421875 62.054688 181.386719 L 58.789062 181.386719 C 59.101562 178.824219 59.417969 176.261719 59.742188 173.703125 L 60 171.539062 C 60.625 166.660156 61.691406 162.144531 63.144531 157.445312 " fill-opacity="1" fill-rule="nonzero"/><path fill="#4e5055" d="M 250.335938 163.976562 L 252.511719 165.0625 L 252.851562 169.144531 C 253.449219 176.230469 256.316406 182.503906 259.042969 189.007812 L 256.867188 190.09375 C 249.394531 173.828125 249.394531 173.828125 249.246094 166.152344 Z M 250.335938 163.976562 " fill-opacity="1" fill-rule="nonzero"/><g clip-path="url(#91a826085b)"><path fill="#363643" d="M -512.582031 688.519531 L -510.402344 688.519531 C -511.832031 696.257812 -513.6875 703.804688 -515.84375 711.375 L -518.023438 711.375 C -517.476562 703.21875 -515.367188 696.183594 -512.582031 688.519531 M 285.164062 570.988281 L 288.425781 572.074219 C 289.917969 574.847656 291.28125 577.679688 292.507812 580.578125 L 293.59375 582.96875 L 294.601562 585.292969 L 295.523438 587.414062 C 296.046875 589.488281 296.046875 589.488281 295.589844 591.925781 L 294.957031 593.839844 C 292.363281 589.945312 291.121094 586.046875 289.621094 581.640625 C 288.417969 578.578125 286.859375 575.976562 285.164062 573.164062 Z M -507.136719 303.273438 L -508.226562 306.539062 C -510.839844 308.171875 -513.511719 309.691406 -516.253906 311.097656 L -518.515625 312.308594 C -524.113281 315.246094 -524.113281 315.246094 -527.816406 315.246094 L -526.726562 311.980469 C -525.042969 310.808594 -525.042969 310.808594 -522.890625 309.757812 L -520.550781 308.597656 L -518.089844 307.421875 L -515.644531 306.210938 C -509.636719 303.273438 -509.636719 303.273438 -507.136719 303.273438 M 202.449219 269.539062 C 206.511719 270.085938 210.449219 270.71875 214.421875 271.714844 L 217.6875 271.714844 C 220.230469 272.058594 222.769531 272.421875 225.304688 272.800781 C 224.214844 274.503906 224.214844 274.503906 222.039062 276.066406 C 214.875 275.941406 208.949219 273.488281 202.449219 270.625 Z M 202.449219 269.539062 " fill-opacity="1" fill-rule="nonzero"/></g><path fill="#1c1b1f" d="M 117.558594 15.972656 L 119.738281 15.972656 C 119.53125 17.808594 119.53125 17.808594 118.648438 20.324219 C 116.132812 23.046875 116.132812 23.046875 113.207031 25.765625 L 110.828125 28.285156 L 108.851562 30.121094 L 106.675781 30.121094 L 106.675781 26.855469 L 108.851562 26.855469 L 108.851562 23.589844 L 111.03125 23.589844 L 111.03125 21.414062 C 114.160156 18.554688 114.160156 18.554688 117.558594 15.972656 " fill-opacity="1" fill-rule="nonzero"/><path fill="#0c090c" d="M 230.746094 337.011719 L 234.011719 338.097656 C 230.898438 340.613281 227.929688 342.265625 224.214844 343.746094 L 221.425781 344.878906 C 218.773438 345.714844 218.773438 345.714844 214.421875 345.714844 L 214.421875 343.539062 C 217.070312 342.417969 219.722656 341.308594 222.378906 340.207031 L 224.65625 339.234375 C 226.65625 338.414062 228.699219 337.707031 230.746094 337.011719 " fill-opacity="1" fill-rule="nonzero"/><path fill="#3f404d" d="M 273.191406 269.539062 L 272.101562 271.714844 C 268.296875 273.15625 264.425781 272.910156 260.402344 272.871094 L 256.542969 272.839844 L 253.601562 272.800781 L 253.601562 270.625 C 260.09375 269.183594 266.582031 269.441406 273.191406 269.539062 " fill-opacity="1" fill-rule="nonzero"/><path fill="#0c090c" d="M 101.234375 64.945312 C 107.777344 66.71875 114.3125 68.503906 120.824219 70.386719 L 120.824219 72.5625 C 113.839844 71.941406 107.746094 69.652344 101.234375 67.121094 Z M 101.234375 64.945312 " fill-opacity="1" fill-rule="nonzero"/><path fill="#363643" d="M 322.84375 187.851562 L 325.488281 187.863281 C 327.644531 187.878906 329.804688 187.898438 331.960938 187.917969 L 330.871094 190.09375 L 311.28125 191.183594 L 311.28125 189.007812 C 314.882812 187.203125 318.890625 187.808594 322.84375 187.851562 " fill-opacity="1" fill-rule="nonzero"/><path fill="#535863" d="M 236.1875 74.738281 L 238.363281 74.738281 L 238.703125 77.664062 C 239.464844 81.332031 240.636719 83.632812 242.71875 86.710938 L 239.453125 86.710938 L 239.453125 84.53125 L 237.277344 84.53125 L 235.097656 81.269531 L 231.835938 80.179688 L 231.835938 78.003906 C 233.875 76.234375 233.875 76.234375 236.1875 74.738281 " fill-opacity="1" fill-rule="nonzero"/><path fill="#0c090c" d="M 269.925781 279.332031 L 272.101562 279.332031 C 270.910156 285.527344 269.335938 291.027344 266.660156 296.746094 L 264.484375 296.746094 C 265.199219 292.628906 266.355469 288.890625 267.816406 284.976562 L 269.011719 281.757812 Z M 269.925781 279.332031 " fill-opacity="1" fill-rule="nonzero"/><path fill="#42434c" d="M 190.476562 117.179688 L 193.742188 118.269531 C 195.015625 120.917969 195.015625 120.917969 196.125 124.1875 L 197.257812 127.449219 C 198.097656 130.238281 198.097656 130.238281 198.097656 132.417969 L 194.832031 131.328125 C 193.558594 128.679688 193.558594 128.679688 192.449219 125.410156 L 191.316406 122.148438 C 190.476562 119.355469 190.476562 119.355469 190.476562 117.179688 " fill-opacity="1" fill-rule="nonzero"/><path fill="#4e5055" d="M 162.179688 338.097656 C 164.878906 338.222656 167.578125 338.359375 170.277344 338.507812 C 171.046875 338.539062 171.816406 338.574219 172.609375 338.609375 C 174.578125 338.722656 176.546875 338.945312 178.507812 339.1875 L 179.59375 341.363281 C 177.714844 341.421875 175.832031 341.464844 173.949219 341.5 L 170.773438 341.574219 C 167.484375 341.351562 165.15625 340.566406 162.179688 339.1875 Z M 162.179688 338.097656 " fill-opacity="1" fill-rule="nonzero"/><g clip-path="url(#a4e204a0ca)"><path fill="#363643" d="M 228.570312 222.742188 L 230.746094 222.742188 C 230.40625 224.488281 230.066406 226.234375 229.726562 227.980469 L 229.152344 230.925781 C 228.570312 233.625 228.570312 233.625 227.480469 236.890625 L 225.304688 236.890625 C 225.828125 231.757812 226.359375 227.457031 228.570312 222.742188 M -506.050781 671.109375 L -503.875 671.109375 L -503.875 677.636719 L -507.136719 678.726562 L -508.226562 684.167969 L -510.402344 684.167969 C -509.882812 682.398438 -509.363281 680.628906 -508.839844 678.863281 L -507.960938 675.878906 C -507.136719 673.285156 -507.136719 673.285156 -506.050781 671.109375 " fill-opacity="1" fill-rule="nonzero"/></g><path fill="#2d2e34" d="M 286.25 190.09375 L 300.398438 190.09375 L 299.308594 192.269531 C 296.109375 192.722656 296.109375 192.722656 292.167969 192.949219 L 288.21875 193.199219 L 285.164062 193.359375 Z M 286.25 190.09375 " fill-opacity="1" fill-rule="nonzero"/><path fill="#9fbcd8" d="M 265.574219 179.210938 L 267.75 179.210938 L 271.015625 191.183594 L 267.75 190.09375 C 266.714844 187.847656 266.714844 187.847656 265.914062 185.128906 L 265.082031 182.40625 L 264.484375 180.300781 Z M 265.574219 179.210938 " fill-opacity="1" fill-rule="nonzero"/><g clip-path="url(#8487db89e9)"><path fill="#4e5055" d="M -539.789062 318.507812 C -543.738281 320.40625 -546.632812 321.703125 -551.011719 322.113281 L -553.9375 321.773438 L -556.113281 319.597656 C -554.210938 319.199219 -552.304688 318.820312 -550.398438 318.441406 L -547.1875 317.792969 C -544.285156 317.4375 -542.519531 317.578125 -539.789062 318.507812 M 240.539062 823.464844 L 239.453125 825.640625 C 236.488281 826.328125 236.488281 826.328125 232.855469 826.867188 L 229.210938 827.417969 L 226.390625 827.816406 L 226.390625 824.554688 C 231.164062 823.789062 235.707031 823.347656 240.539062 823.464844 " fill-opacity="1" fill-rule="nonzero"/></g><path fill="#23222b" d="M 247.070312 193.359375 L 247.070312 195.535156 L 238.363281 196.625 L 238.363281 198.800781 L 236.1875 198.800781 C 236.527344 196.691406 236.527344 196.691406 237.277344 194.449219 C 240.753906 193.289062 243.433594 193.277344 247.070312 193.359375 " fill-opacity="1" fill-rule="nonzero"/><path fill="#0c090c" d="M 220.949219 49.707031 L 223.128906 49.707031 L 223.398438 52.835938 L 224.214844 56.238281 C 226.339844 57.800781 226.339844 57.800781 228.570312 58.414062 L 225.304688 59.503906 L 222.039062 57.324219 C 221.292969 53.382812 221.292969 53.382812 220.949219 49.707031 M 296.046875 647.164062 L 298.222656 647.164062 C 298.953125 648.570312 299.679688 649.972656 300.398438 651.382812 L 301.625 653.753906 C 302.574219 655.871094 302.574219 655.871094 302.574219 658.046875 L 300.398438 658.046875 C 296.996094 652.414062 296.996094 652.414062 296.046875 650.429688 Z M 116.472656 581.871094 L 118.648438 581.871094 C 118.339844 583.480469 118.023438 585.089844 117.695312 586.699219 L 117.160156 589.414062 L 116.472656 591.664062 L 114.296875 592.753906 L 114.296875 585.132812 L 116.472656 585.132812 Z M 116.472656 581.871094 " fill-opacity="1" fill-rule="nonzero"/><path fill="#0c090c" d="M 78.378906 94.328125 L 80.558594 94.328125 C 79.941406 98.632812 78.589844 101.582031 76.203125 105.210938 L 74.027344 101.945312 L 76.203125 101.945312 Z M 78.378906 94.328125 " fill-opacity="1" fill-rule="nonzero"/><g clip-path="url(#23e7b3aac1)"><path fill="#363643" d="M 353.726562 613.429688 L 353.726562 615.605469 L 343.933594 618.871094 L 343.933594 616.695312 C 350.054688 613.429688 350.054688 613.429688 353.726562 613.429688 M -671.476562 61.679688 L -669.300781 61.679688 C -670.183594 64.808594 -670.183594 64.808594 -671.476562 68.207031 L -674.742188 70.386719 C -674.457031 68.199219 -674.085938 66.019531 -673.652344 63.855469 Z M -671.476562 61.679688 " fill-opacity="1" fill-rule="nonzero"/></g><path fill="#0c090c" d="M 213.332031 32.296875 L 216.597656 33.382812 C 217.957031 35.425781 217.957031 35.425781 218.773438 37.738281 L 217.6875 41.003906 C 216.121094 39.710938 216.121094 39.710938 214.421875 37.738281 C 213.671875 34.8125 213.671875 34.8125 213.332031 32.296875 " fill-opacity="1" fill-rule="nonzero"/><path fill="#363643" d="M 136.0625 6.175781 L 138.238281 6.175781 L 138.238281 8.355469 L 141.503906 9.441406 L 140.414062 10.53125 C 137.875 10.574219 135.335938 10.574219 132.796875 10.53125 C 134.292969 8.355469 134.292969 8.355469 136.0625 6.175781 M 256.867188 822.375 C 259.414062 822.65625 261.957031 823.023438 264.484375 823.464844 L 265.574219 825.640625 L 255.777344 824.554688 Z M 256.867188 822.375 " fill-opacity="1" fill-rule="nonzero"/><g clip-path="url(#e1d813c501)"><path fill="#363643" d="M -798.808594 560.105469 L -796.632812 560.105469 C -797.902344 562.746094 -799.355469 565.285156 -800.988281 567.722656 L -803.164062 567.722656 C -801.996094 564.550781 -801.226562 562.523438 -798.808594 560.105469 M 41.378906 283.683594 L 44.640625 283.683594 L 45.730469 292.390625 L 43.554688 291.304688 C 42.757812 288.785156 42.03125 286.246094 41.378906 283.683594 " fill-opacity="1" fill-rule="nonzero"/></g><path fill="#5d636e" d="M 323.253906 249.949219 L 326.519531 251.039062 L 325.429688 258.65625 L 323.253906 257.566406 Z M 323.253906 249.949219 " fill-opacity="1" fill-rule="nonzero"/><path fill="#4e5055" d="M 216.597656 272.800781 L 225.304688 272.800781 C 224.011719 274.433594 224.011719 274.433594 222.039062 276.066406 C 219.113281 276.273438 219.113281 276.273438 216.597656 276.066406 Z M 216.597656 272.800781 " fill-opacity="1" fill-rule="nonzero"/></svg>