<svg xmlns="http://www.w3.org/2000/svg" xmlns:xlink="http://www.w3.org/1999/xlink" width="500" zoomAndPan="magnify" viewBox="0 0 375 374.999991" height="500" preserveAspectRatio="xMidYMid meet" version="1.0"><defs><clipPath id="3064faa598"><path d="M 123 161 L 363.21875 161 L 363.21875 344 L 123 344 Z M 123 161 " clip-rule="nonzero"/></clipPath><clipPath id="1ca88b33ee"><path d="M 291 0 L 363.21875 0 L 363.21875 133 L 291 133 Z M 291 0 " clip-rule="nonzero"/></clipPath><clipPath id="6f07a6da1f"><path d="M 295 123 L 363.21875 123 L 363.21875 375 L 295 375 Z M 295 123 " clip-rule="nonzero"/></clipPath><clipPath id="4423cdff49"><path d="M 11.46875 135 L 363.21875 135 L 363.21875 375 L 11.46875 375 Z M 11.46875 135 " clip-rule="nonzero"/></clipPath><clipPath id="28d7db5721"><path d="M 23 208 L 363.21875 208 L 363.21875 269 L 23 269 Z M 23 208 " clip-rule="nonzero"/></clipPath><clipPath id="f1da006109"><path d="M 244 269 L 363.21875 269 L 363.21875 375 L 244 375 Z M 244 269 " clip-rule="nonzero"/></clipPath><clipPath id="234e70551c"><path d="M 198 333 L 363.21875 333 L 363.21875 375 L 198 375 Z M 198 333 " clip-rule="nonzero"/></clipPath><clipPath id="724d10aad4"><path d="M 263 220 L 363.21875 220 L 363.21875 375 L 263 375 Z M 263 220 " clip-rule="nonzero"/></clipPath><clipPath id="02295f2eac"><path d="M 215 320 L 363.21875 320 L 363.21875 375 L 215 375 Z M 215 320 " clip-rule="nonzero"/></clipPath><clipPath id="6c5b25fa1c"><path d="M 90 52 L 363.21875 52 L 363.21875 375 L 90 375 Z M 90 52 " clip-rule="nonzero"/></clipPath><clipPath id="253594c94b"><path d="M 11.46875 284 L 363.21875 284 L 363.21875 375 L 11.46875 375 Z M 11.46875 284 " clip-rule="nonzero"/></clipPath></defs><path fill="#92bcb8" d="M 170.714844 4.113281 C 175.828125 4.015625 180.941406 3.949219 186.054688 3.980469 L 188.671875 3.996094 C 193.148438 4.203125 197.226562 5.117188 201.503906 6.394531 C 203.558594 6.914062 205.609375 7.4375 207.664062 7.957031 C 228.710938 13.359375 228.710938 13.359375 236.859375 18.9375 L 236.859375 21.21875 L 240.636719 22.144531 C 244.765625 23.472656 245.515625 23.96875 248.261719 26.921875 C 250.367188 28.648438 252.484375 30.359375 254.617188 32.050781 L 256.246094 33.761719 L 256.246094 37.183594 L 258.527344 37.183594 C 272.480469 53.714844 278.714844 71.289062 283.613281 91.917969 L 284.308594 94.46875 C 285.042969 97.777344 284.820312 101.089844 284.753906 104.460938 L 288.175781 104.460938 L 289.246094 107.242188 C 290.1875 110.039062 290.1875 110.039062 291.597656 111.304688 C 294.253906 111.722656 296.914062 112.101562 299.582031 112.441406 L 300.507812 110.234375 L 301.863281 107.882812 L 305.28125 106.742188 L 306.421875 103.320312 C 308.363281 102.164062 310.304688 101.015625 312.292969 99.949219 C 315.175781 98.328125 317.632812 96.378906 320.109375 94.199219 L 321.25 91.917969 C 324.734375 89.855469 327.300781 88.546875 331.371094 88.285156 L 333.792969 88.496094 L 333.792969 86.214844 C 337.703125 85.730469 341.300781 85.554688 345.195312 86.214844 C 348.285156 88.386719 350.292969 90.863281 352.039062 94.199219 C 355.269531 104.714844 352.839844 119.023438 350.613281 129.546875 C 348.828125 136.402344 346.101562 142.625 342.917969 148.933594 L 341.535156 151.738281 C 340.488281 153.851562 339.425781 155.957031 338.355469 158.054688 L 336.074219 158.054688 L 335.003906 160.761719 C 333.792969 163.757812 333.792969 163.757812 332.652344 166.039062 L 330.371094 166.039062 L 328.089844 171.738281 L 325.808594 171.738281 L 325.097656 174.1875 C 323.089844 178.351562 320.132812 180.898438 316.6875 183.855469 C 311.683594 188.210938 311.683594 188.210938 307.5625 193.40625 C 307.046875 198.699219 308.121094 203.578125 309.234375 208.726562 C 310.988281 217.121094 311.195312 225.242188 311.195312 233.78125 C 311.199219 236.203125 311.21875 238.621094 311.242188 241.039062 C 311.292969 253.34375 311.042969 265.910156 305.851562 277.289062 L 304.390625 280.570312 C 303.199219 283.078125 301.976562 285.570312 300.722656 288.050781 L 298.441406 288.050781 L 298.078125 290.027344 C 297.171875 293.03125 295.839844 294.960938 293.949219 297.457031 L 292.136719 299.898438 L 290.457031 301.734375 L 288.175781 301.734375 L 288.175781 304.011719 L 285.894531 304.011719 L 285.894531 306.292969 L 282.832031 307.648438 C 278.882812 309.808594 276.472656 312.214844 273.351562 315.417969 C 271.488281 316.617188 269.597656 317.78125 267.648438 318.835938 L 268.789062 322.257812 L 271.070312 323.398438 L 271.070312 325.679688 L 273.851562 326.75 C 276.773438 327.960938 276.773438 327.960938 277.914062 329.101562 C 278.199219 332.378906 278.199219 332.378906 277.914062 335.941406 C 276.230469 338.054688 274.761719 339.226562 272.351562 340.445312 C 261.992188 344.042969 252.132812 343.207031 241.464844 341.320312 C 236.816406 340.226562 232.453125 338.578125 228.050781 336.75 C 222.484375 335.546875 217.378906 336.378906 211.769531 337.082031 L 208.085938 337.503906 C 204.296875 337.941406 200.515625 338.402344 196.730469 338.863281 C 192.238281 339.40625 187.746094 339.953125 183.257812 340.503906 L 183.914062 344.324219 L 184.398438 348.484375 C 183.042969 351.195312 183.042969 351.195312 180.976562 353.046875 C 176.804688 354.535156 172.605469 354.339844 168.21875 354.328125 L 163.894531 354.339844 L 160.449219 354.1875 L 159.308594 353.046875 C 157.464844 352.628906 155.609375 352.246094 153.75 351.90625 C 150.53125 351.304688 147.597656 350.664062 144.484375 349.625 L 144.484375 347.34375 L 142.558594 346.917969 C 139.671875 346.136719 136.980469 345.074219 134.21875 343.925781 L 134.21875 341.644531 L 128.519531 339.363281 L 128.519531 337.082031 L 126.238281 337.082031 L 126.238281 334.800781 L 123.957031 334.800781 L 123.957031 331.378906 L 121.675781 331.378906 L 120.535156 329.101562 C 117.601562 328.058594 117.601562 328.058594 114.191406 327.246094 L 110.695312 326.347656 L 107.992188 325.679688 L 107.992188 323.398438 L 100.007812 321.117188 L 100.007812 318.835938 L 93.164062 317.695312 L 93.164062 315.417969 L 89.742188 315.417969 L 89.742188 313.136719 L 87.464844 313.136719 L 85.183594 309.714844 L 81.761719 308.574219 C 73.183594 300.25 64.945312 289.78125 61.476562 278.214844 C 60.664062 274.96875 59.9375 271.71875 59.238281 268.449219 L 58.476562 265.09375 C 57.371094 260.089844 56.53125 255.566406 56.671875 250.417969 L 54.738281 250.957031 C 46.164062 253.039062 38.011719 252.878906 29.300781 251.558594 C 26.117188 250.578125 26.117188 250.578125 23.601562 249.277344 C 21.320312 245.859375 21.320312 245.859375 20.9375 243.46875 C 20.808594 235.515625 22.777344 229.195312 25.878906 221.910156 L 28.160156 221.910156 L 28.445312 219.347656 C 29.300781 216.210938 29.300781 216.210938 31.582031 213.789062 L 33.863281 211.648438 L 35.003906 208.226562 L 37 206.375 C 39.429688 203.8125 40.71875 201.703125 42.347656 198.609375 C 44.097656 195.308594 45.40625 193.269531 48.117188 190.625 C 52.660156 185.96875 55.660156 179.941406 57.402344 173.667969 C 57.539062 173.03125 57.671875 172.394531 57.8125 171.738281 L 60.09375 171.738281 L 60.449219 169.316406 C 61.339844 165.589844 62.855469 162.5625 64.65625 159.195312 L 66.9375 159.195312 C 67.738281 156.613281 67.738281 156.613281 68.074219 153.492188 L 66.9375 150.929688 C 65.496094 146.972656 65.816406 144.082031 66.375 139.957031 C 66.9375 137.53125 66.9375 137.53125 68.71875 134.609375 C 70.480469 132.042969 70.480469 132.042969 70.617188 129.621094 C 70.648438 126.46875 70.597656 123.5 69.683594 120.46875 C 69.09375 117.527344 69.628906 115.777344 70.570312 112.941406 C 71.75 109.652344 72.488281 108.03125 74.988281 105.53125 C 77.199219 104.460938 77.199219 104.460938 79.480469 104.460938 L 79.335938 102.039062 C 79.5 98.28125 80.570312 95.488281 81.761719 91.917969 C 82.476562 88.929688 83.164062 85.9375 83.828125 82.9375 C 85.425781 76.015625 87.160156 69.152344 89.171875 62.339844 L 89.828125 59.992188 C 90.492188 57.820312 90.492188 57.820312 92.023438 54.289062 C 94.410156 52.878906 94.410156 52.878906 96.585938 52.007812 C 97.429688 49.375 98.183594 46.707031 98.867188 44.023438 C 101.148438 39.351562 103.886719 36.894531 107.992188 33.761719 L 109.132812 31.480469 L 111.410156 31.480469 L 112.550781 28.0625 L 114.832031 28.0625 L 115.972656 24.640625 C 120.222656 20.566406 124.824219 18.621094 130.300781 16.730469 C 131.925781 16.144531 133.554688 15.558594 135.179688 14.972656 L 137.605469 14.101562 C 142.007812 12.460938 146.292969 10.554688 150.585938 8.652344 C 155.671875 6.769531 160.613281 6.242188 166.007812 6.324219 L 168.707031 6.355469 L 170.714844 6.394531 Z M 170.714844 4.113281 " fill-opacity="1" fill-rule="nonzero"/><path fill="#91bcb8" d="M 170.714844 4.113281 C 175.828125 4.015625 180.941406 3.949219 186.054688 3.980469 L 188.671875 3.996094 C 193.148438 4.203125 197.226562 5.117188 201.503906 6.394531 C 203.558594 6.914062 205.609375 7.4375 207.664062 7.957031 C 228.710938 13.359375 228.710938 13.359375 236.859375 18.9375 L 236.859375 21.21875 L 240.636719 22.144531 C 244.765625 23.472656 245.515625 23.96875 248.261719 26.921875 C 250.367188 28.648438 252.484375 30.359375 254.617188 32.050781 L 256.246094 33.761719 L 256.246094 37.183594 L 258.527344 37.183594 C 260.941406 40.328125 262.875 42.871094 263.605469 46.8125 C 264.296875 50.046875 265.417969 51.800781 267.292969 54.503906 C 274.574219 66.222656 278.363281 80.617188 280.195312 94.199219 L 280.976562 98.617188 C 281.335938 102.207031 281.46875 104.511719 280.195312 107.882812 C 277.484375 110.589844 277.484375 110.589844 274.492188 112.441406 C 271.070312 111.304688 271.070312 111.304688 269.929688 110.164062 L 269.503906 113.226562 C 267.648438 117.003906 267.648438 117.003906 265.640625 118.488281 C 238.347656 132.710938 206.855469 137.289062 176.414062 136.390625 C 170.863281 135.992188 165.339844 135.421875 159.808594 134.820312 L 155.535156 134.386719 C 151.464844 133.953125 147.402344 133.480469 143.34375 132.96875 L 139.644531 132.527344 L 136.261719 132.035156 L 133.304688 131.628906 L 130.800781 130.6875 C 127.929688 127.136719 126.480469 123.613281 125.097656 119.285156 L 124.257812 116.933594 C 121.246094 106.507812 121.589844 93.324219 124.097656 82.796875 C 126.734375 74.710938 131.222656 68.316406 137.355469 62.484375 C 142.304688 58.441406 147.414062 55.863281 153.605469 54.289062 C 159.179688 53.546875 164.292969 53.800781 169.644531 55.570312 C 176.277344 58.472656 182.210938 61.859375 186.820312 67.53125 C 188.761719 70.292969 190.613281 73.078125 192.382812 75.953125 C 191.46875 71.28125 189.421875 68.304688 186.535156 64.585938 C 182.125 59.804688 176.863281 56.503906 170.832031 54.128906 C 163.683594 52.148438 156.316406 52.347656 149.078125 53.851562 C 142.210938 56.03125 137.019531 59.324219 131.867188 64.34375 C 126.195312 70.730469 123.746094 76.984375 121.816406 85.289062 C 119.539062 98.3125 120.972656 109.542969 125.28125 121.96875 C 126.238281 124.988281 126.238281 124.988281 126.238281 128.40625 C 113.257812 127.722656 100.796875 123.417969 89.914062 116.355469 L 87.464844 114.722656 L 84.339844 113.351562 L 81.761719 111.304688 C 81.175781 108.128906 81 105.773438 81.121094 102.609375 L 81.175781 100.007812 C 81.550781 90.507812 83.726562 81.632812 86.324219 72.53125 L 87.023438 69.945312 C 87.71875 67.402344 88.4375 64.871094 89.171875 62.339844 L 89.828125 59.988281 C 90.492188 57.820312 90.492188 57.820312 92.023438 54.289062 C 94.410156 52.878906 94.410156 52.878906 96.585938 52.007812 C 97.429688 49.375 98.183594 46.707031 98.867188 44.023438 C 101.148438 39.351562 103.886719 36.894531 107.992188 33.761719 L 109.132812 31.480469 L 111.410156 31.480469 L 112.550781 28.0625 L 114.832031 28.0625 L 115.972656 24.640625 C 120.222656 20.566406 124.824219 18.621094 130.300781 16.730469 C 131.925781 16.144531 133.554688 15.558594 135.179688 14.972656 L 137.605469 14.101562 C 142.007812 12.460938 146.292969 10.554688 150.585938 8.652344 C 155.671875 6.769531 160.613281 6.242188 166.007812 6.324219 L 168.707031 6.355469 L 170.714844 6.394531 Z M 170.714844 4.113281 " fill-opacity="1" fill-rule="nonzero"/><g clip-path="url(#3064faa598)"><path fill="#faf1df" d="M 274.492188 161.476562 L 277.914062 161.476562 C 293.878906 194.007812 293.878906 194.007812 293.878906 203.667969 L 296.160156 204.808594 C 300.835938 221.40625 300.816406 243.730469 296.660156 260.398438 C 291.945312 276.105469 283.949219 289.304688 272.140625 300.734375 C 264.757812 307.082031 255.210938 312.339844 245.980469 315.417969 L 244.839844 317.695312 C 237.828125 320.273438 230.574219 321.515625 223.171875 322.257812 L 219.652344 322.835938 C 199.332031 325.390625 178.34375 323.765625 159.363281 315.875 C 153.730469 313.375 149.019531 310.441406 144.484375 306.292969 L 142.410156 304.492188 C 134.726562 297.390625 130.164062 289.136719 127.019531 279.210938 C 125.011719 272.324219 123.792969 265.804688 123.8125 258.617188 L 123.804688 255.316406 L 123.957031 252.699219 L 125.097656 251.558594 C 136.484375 251.925781 147.261719 255.367188 158.167969 258.402344 C 165.261719 232.59375 170.117188 207.691406 166.152344 180.859375 L 169.015625 180.914062 C 188.09375 181.226562 206.664062 181.222656 225.453125 177.441406 L 228.398438 176.867188 C 243.890625 173.757812 258.921875 169.109375 273.351562 162.617188 Z M 996.59375 266.496094 C 999.375 267.382812 1002.203125 268.105469 1005.070312 268.664062 C 1008.890625 269.429688 1012.246094 270.632812 1015.832031 272.15625 C 1020.878906 274.257812 1025.125 275.222656 1030.585938 275.507812 L 1032.734375 274.964844 C 1035.675781 274.234375 1038.40625 274.160156 1041.441406 274.085938 L 1045.167969 273.976562 L 1049.121094 273.867188 C 1060.570312 273.492188 1071.722656 272.675781 1083.046875 270.945312 C 1087.671875 270.253906 1092.050781 269.664062 1096.730469 269.804688 L 1096.730469 273.226562 L 1093.453125 273.867188 L 1089.890625 275.507812 C 1088.222656 279.527344 1088.222656 279.527344 1087.609375 283.488281 L 1083.046875 283.488281 L 1083.046875 280.066406 L 1080.765625 280.066406 L 1079.910156 284.484375 C 1078.585938 290.523438 1076.359375 296.066406 1073.921875 301.734375 L 1071.640625 301.734375 L 1070.714844 303.710938 C 1065.882812 312.933594 1058.554688 319.949219 1049.976562 325.679688 C 1040.445312 331.417969 1030.25 337.363281 1019.183594 339.363281 L 1015.761719 339.363281 L 1015.761719 341.644531 C 993.3125 344.597656 970.210938 344.300781 948.691406 336.867188 C 937.703125 332.304688 928.734375 325.226562 921.035156 316.195312 C 913.871094 306.273438 911.324219 294.296875 909.703125 282.347656 C 909.121094 274.515625 909.644531 268.210938 911.984375 260.683594 L 913.929688 260.890625 C 942.246094 264.21875 942.246094 264.21875 970.207031 259.953125 C 978.359375 258.445312 988.960938 263.863281 996.59375 266.496094 " fill-opacity="1" fill-rule="nonzero"/></g><path fill="#faf1df" d="M 243.699219 48.585938 C 250.734375 52.027344 256.40625 56.945312 260.804688 63.410156 C 264.894531 70.179688 267.210938 76.027344 267.648438 83.9375 L 269.929688 83.9375 C 270.222656 87.734375 270.472656 91.535156 270.714844 95.339844 L 270.964844 98.566406 C 271.269531 103.683594 271.316406 108.140625 269.675781 113.039062 C 267.648438 117.003906 267.648438 117.003906 265.5 118.902344 L 262.945312 119.996094 L 259.902344 121.316406 L 256.246094 122.707031 L 254.019531 123.550781 C 223.328125 135.089844 192.421875 138.367188 159.808594 134.820312 L 155.535156 134.386719 C 151.464844 133.953125 147.402344 133.480469 143.34375 132.96875 L 139.644531 132.527344 L 136.261719 132.035156 L 133.304688 131.628906 L 130.800781 130.6875 C 127.929688 127.136719 126.480469 123.613281 125.097656 119.285156 L 124.257812 116.933594 C 121.246094 106.507812 121.589844 93.324219 124.097656 82.796875 C 126.734375 74.710938 131.222656 68.316406 137.355469 62.484375 C 142.304688 58.441406 147.414062 55.863281 153.605469 54.289062 C 159.179688 53.546875 164.292969 53.800781 169.644531 55.570312 C 176.234375 58.453125 182.210938 61.804688 186.742188 67.488281 C 188.125 69.496094 189.46875 71.53125 190.773438 73.589844 C 192.195312 76.089844 192.195312 76.089844 194.664062 77.09375 C 196.273438 80.777344 197.332031 84.546875 198.082031 88.496094 C 197.300781 92.097656 196.273438 93.660156 193.878906 96.410156 L 192.382812 98.757812 C 192.292969 102.234375 192.292969 102.234375 193.523438 105.601562 C 195.542969 108.285156 195.542969 108.285156 198.082031 110.164062 L 201.503906 111.304688 L 201.503906 113.582031 L 215.191406 113.582031 L 215.191406 107.882812 L 212.910156 104.460938 L 215.6875 101.96875 C 218.785156 99.042969 218.785156 99.042969 219.539062 95.554688 L 219.75 93.058594 L 211.769531 89.636719 C 211.675781 86.40625 211.609375 83.175781 211.554688 79.945312 L 211.46875 77.210938 C 211.390625 70.84375 212.273438 65.6875 215.191406 59.988281 C 217.148438 57.222656 217.148438 57.222656 219.179688 55.074219 L 221.210938 52.875 L 223.171875 50.867188 L 224.847656 48.964844 C 226.59375 47.445312 226.59375 47.445312 228.71875 46.621094 C 233.867188 45.953125 238.769531 47.128906 243.699219 48.585938 " fill-opacity="1" fill-rule="nonzero"/><path fill="#9fbcd8" d="M 77.199219 106.742188 L 79.480469 106.742188 L 79.761719 109.347656 C 80.378906 112.511719 80.378906 112.511719 82.585938 114.507812 C 104.601562 129.828125 135.199219 134.996094 161.441406 137.289062 C 198.027344 139.753906 234.367188 135.328125 267.648438 119.285156 C 272.835938 116.289062 277.320312 113.101562 281.476562 108.789062 L 283.613281 106.742188 L 285.894531 106.742188 C 287.632812 109.175781 288.542969 110.71875 289.316406 113.582031 C 289.210938 116.058594 289.019531 118.53125 288.746094 120.996094 C 288.089844 126.773438 288.089844 126.773438 289.816406 132.253906 L 291.597656 135.25 C 292.097656 139.238281 292.097656 139.238281 291.597656 143.230469 C 289.421875 147.867188 286.652344 150.585938 282.546875 153.492188 C 269.753906 161.46875 255.742188 166.222656 241.417969 170.597656 L 237.214844 171.921875 C 199.472656 182.617188 157.820312 180.574219 120.035156 171.453125 C 102.609375 166.960938 79.050781 160.550781 65.796875 147.792969 C 65.367188 145.300781 65.367188 145.300781 65.796875 142.734375 L 66.152344 140.171875 C 66.9375 137.53125 66.9375 137.53125 68.648438 134.960938 C 71.3125 130.078125 71.238281 125.03125 71.59375 119.554688 C 71.980469 115.15625 72.410156 112.796875 74.851562 108.984375 Z M 77.199219 106.742188 " fill-opacity="1" fill-rule="nonzero"/><path fill="#5d636e" d="M 263.085938 45.164062 C 271.332031 52.964844 275.835938 62.929688 279.054688 73.671875 C 280.699219 79.722656 282.167969 85.816406 283.613281 91.917969 L 284.308594 94.46875 C 285.042969 97.777344 284.820312 101.089844 284.753906 104.460938 L 288.175781 104.460938 L 288.960938 107.167969 L 290.457031 110.164062 C 293.335938 111.714844 293.335938 111.714844 296.160156 112.441406 L 295.019531 115.863281 L 292.738281 117.003906 C 291.753906 120.386719 291.527344 123.753906 291.597656 127.265625 C 292.289062 129.625 292.289062 129.625 293.308594 131.828125 C 294.800781 135.296875 295.273438 137.878906 295.019531 141.664062 C 294.40625 145.460938 293.648438 147 291.457031 150.359375 C 288.984375 152.71875 286.746094 154.601562 283.980469 156.539062 C 283.269531 157.042969 282.558594 157.542969 281.824219 158.058594 L 280.195312 159.195312 L 281.167969 161.386719 C 296.160156 195.183594 296.160156 195.183594 296.160156 203.667969 L 293.878906 203.667969 L 292.703125 199.859375 C 289.40625 189.464844 285.648438 179.589844 280.808594 169.808594 C 277.914062 163.945312 277.914062 163.945312 277.914062 161.476562 L 276.054688 162.238281 C 259.664062 168.960938 243.738281 174.539062 226.378906 178.226562 L 222.890625 178.964844 C 210.1875 181.566406 197.996094 182.183594 185.039062 182.144531 L 180.667969 182.15625 L 176.492188 182.152344 L 172.710938 182.148438 C 169.574219 182 169.574219 182 166.152344 180.859375 L 167.269531 184.648438 C 168.742188 190.566406 168.824219 196.3125 168.789062 202.382812 L 168.773438 205.878906 C 168.542969 220.664062 165.71875 234.496094 162.089844 248.78125 L 161.363281 251.644531 C 160.753906 253.917969 160.042969 256.164062 159.308594 258.402344 L 157.027344 259.542969 C 153.777344 258.710938 150.546875 257.808594 147.335938 256.832031 C 139.875 254.65625 132.898438 253.078125 125.097656 252.699219 C 124.128906 265.390625 126.902344 278.039062 132.152344 289.617188 C 137.089844 298.582031 144.3125 306.3125 153.054688 311.648438 C 171.828125 321.503906 191.632812 323.175781 212.464844 322.425781 C 216.886719 322.152344 221.136719 321.457031 225.425781 320.367188 C 228.050781 319.925781 229.785156 320.304688 232.296875 321.117188 C 218.71875 327.761719 202.582031 326.171875 187.820312 325.679688 C 173.976562 324.699219 160.269531 320.863281 148.546875 313.351562 C 138.921875 306.410156 132.675781 299.902344 127.660156 289.054688 L 126.238281 285.769531 L 125.136719 283.265625 C 121.304688 273.851562 120.144531 265.132812 121.347656 255.042969 L 121.675781 252.699219 L 119.46875 252.53125 L 116.617188 252.273438 C 115.675781 252.191406 114.734375 252.113281 113.769531 252.03125 L 111.410156 251.558594 C 109.9375 248.609375 110.058594 245.988281 110.105469 242.738281 C 110.386719 238.378906 111.355469 234.214844 112.339844 229.964844 C 112.757812 228.035156 113.175781 226.105469 113.589844 224.175781 C 114.179688 221.460938 114.773438 218.75 115.386719 216.042969 C 118.664062 201.285156 118.625 186.8125 118.253906 171.738281 L 114.578125 171.253906 C 100.644531 169.136719 80.578125 163.191406 69.214844 154.632812 C 67.78125 151.609375 67.78125 151.609375 66.9375 148.933594 C 69.5 150.199219 72.035156 151.503906 74.554688 152.859375 C 94.855469 163.53125 116.25 170.027344 138.78125 174.019531 L 141.953125 174.585938 C 180.832031 181.265625 220.792969 177.339844 257.949219 164.277344 C 274.054688 158.410156 274.054688 158.410156 287.378906 148.261719 C 289.3125 145.664062 289.3125 145.664062 290.457031 143.230469 C 290.839844 139.433594 290.839844 139.433594 290.457031 135.25 L 288.675781 132.253906 C 286.808594 127.867188 287.066406 125.683594 287.535156 120.996094 L 288.027344 117.253906 C 288.191406 113.214844 287.382812 110.46875 285.894531 106.742188 L 283.710938 108.707031 C 267.089844 123.050781 246.363281 130.175781 225.167969 135.035156 C 222.609375 135.519531 220.042969 135.96875 217.46875 136.390625 L 213.351562 137.09375 C 174.875 142.648438 133.207031 137.972656 96.941406 123.847656 C 90.648438 121.101562 83.84375 117.917969 79.480469 112.441406 C 79.226562 109.347656 79.226562 109.347656 79.480469 106.742188 C 76.488281 108.96875 76.488281 108.96875 73.777344 112.441406 C 72.964844 115.859375 72.722656 119.199219 72.636719 122.707031 L 69.214844 121.566406 C 70.503906 111.660156 70.503906 111.660156 72.839844 108.136719 C 74.347656 106.597656 74.347656 106.597656 77.199219 104.460938 L 79.480469 104.460938 L 79.480469 98.757812 L 82.902344 98.757812 L 82.902344 111.304688 C 96.671875 119.851562 110.21875 125.316406 126.238281 128.40625 L 125.03125 124.976562 C 120.472656 111.578125 118.226562 99.558594 120.605469 85.359375 C 122.664062 76.464844 125.878906 69.925781 131.941406 63.128906 C 137.070312 58.132812 142.253906 54.863281 149.089844 52.71875 C 156.175781 51.226562 163.269531 50.828125 170.273438 52.878906 C 172.78125 53.949219 175.210938 55.175781 177.554688 56.570312 L 181.191406 58.636719 C 186.539062 62.796875 190.679688 67.339844 193.378906 73.601562 L 194.664062 77.09375 L 191.242188 75.953125 C 189.519531 73.589844 189.519531 73.589844 187.675781 70.609375 C 183.625 64.632812 179.402344 60.988281 172.996094 57.707031 C 166.621094 55.160156 160.386719 54.636719 153.605469 55.429688 C 145.875 57.300781 139.929688 61.066406 134.195312 66.519531 C 128.933594 72.570312 126.25 79.472656 124.40625 87.214844 C 123.667969 91.1875 123.570312 95.085938 123.601562 99.117188 L 123.613281 101.667969 C 123.75 108.671875 124.875 115 127.378906 121.566406 L 128.289062 125.734375 C 129.101562 127.878906 129.101562 127.878906 130.800781 129.546875 C 135.582031 131.261719 140.449219 131.722656 145.480469 132.253906 L 149.507812 132.777344 C 183.726562 137.066406 219.476562 136.550781 251.824219 123.347656 C 254.0625 122.375 256.292969 121.402344 258.527344 120.425781 L 261.339844 119.324219 C 264.121094 118.230469 264.121094 118.230469 267.648438 115.863281 C 269.066406 113.113281 269.449219 110.992188 269.929688 107.882812 L 272.210938 110.164062 C 275.570312 110.398438 275.570312 110.398438 278.128906 109.023438 L 280.195312 106.742188 C 281.691406 92.5 275.851562 76.660156 271.070312 63.410156 C 269.050781 59.027344 266.765625 54.960938 264.226562 50.867188 C 263.449219 49.355469 262.6875 47.835938 261.945312 46.304688 Z M 263.085938 45.164062 " fill-opacity="1" fill-rule="nonzero"/><path fill="#9fbcd8" d="M 120.535156 174.019531 C 128.902344 174.867188 137.179688 176.101562 145.480469 177.441406 L 149.375 178.054688 L 153.101562 178.652344 L 156.464844 179.191406 C 159.308594 179.722656 159.308594 179.722656 162.730469 180.859375 C 166.992188 206.304688 165.53125 230.550781 157.027344 254.980469 L 152.761719 253.773438 C 139.628906 250.199219 127.296875 248.320312 113.691406 248.140625 C 113.910156 238.21875 115.644531 228.882812 117.683594 219.203125 C 120.875 203.871094 122.429688 189.679688 120.535156 174.019531 " fill-opacity="1" fill-rule="nonzero"/><path fill="#4e5055" d="M 331.511719 156.914062 L 333.792969 156.914062 C 332.308594 160.996094 330.421875 164.652344 328.203125 168.386719 C 326.828125 170.726562 326.828125 170.726562 325.523438 173.867188 C 323.132812 178.148438 320.300781 180.769531 316.617188 183.925781 C 311.648438 188.246094 311.648438 188.246094 307.5625 193.40625 C 307.046875 198.699219 308.121094 203.578125 309.234375 208.726562 C 310.988281 217.121094 311.195312 225.242188 311.195312 233.78125 C 311.199219 236.203125 311.21875 238.621094 311.242188 241.039062 C 311.292969 253.34375 311.042969 265.910156 305.851562 277.289062 L 304.390625 280.570312 C 303.199219 283.078125 301.976562 285.570312 300.722656 288.050781 L 298.441406 288.050781 L 298.078125 290.027344 C 297.171875 293.03125 295.839844 294.960938 293.949219 297.457031 L 292.136719 299.898438 L 290.457031 301.734375 L 288.175781 301.734375 L 288.175781 304.011719 L 285.894531 304.011719 L 285.894531 306.292969 L 282.832031 307.648438 C 278.882812 309.808594 276.472656 312.214844 273.351562 315.417969 C 271.488281 316.617188 269.597656 317.78125 267.648438 318.835938 L 268.789062 322.257812 L 271.070312 323.398438 L 269.929688 325.679688 L 268.148438 325.109375 C 263.628906 324.183594 259.414062 323.898438 254.960938 325.304688 C 253.398438 325.914062 251.847656 326.550781 250.3125 327.210938 C 248.261719 327.960938 248.261719 327.960938 244.839844 327.960938 L 244.839844 325.679688 L 248.472656 323.921875 C 256.386719 320.058594 264.117188 316.257812 271.304688 311.113281 C 273.351562 309.714844 273.351562 309.714844 275.753906 308.671875 L 277.914062 307.433594 C 278.714844 305.933594 279.472656 304.414062 280.195312 302.875 C 281.769531 301.078125 283.386719 299.320312 285.039062 297.597656 C 294.652344 287.03125 300.285156 275.3125 303.65625 261.40625 C 305.519531 252.433594 305.675781 243.597656 305.640625 234.457031 L 305.632812 232.101562 C 305.554688 214.367188 303.410156 198.039062 297.914062 181.144531 C 297.273438 179.167969 296.710938 177.164062 296.160156 175.160156 L 297.300781 172.878906 L 295.019531 171.738281 C 294.550781 169.089844 294.171875 166.429688 293.878906 163.757812 L 296.160156 163.757812 C 299.121094 171.664062 301.816406 179.585938 304.140625 187.703125 C 306.242188 187.511719 306.242188 187.511719 308.703125 186.5625 C 316.503906 179.640625 322.335938 171.136719 327.835938 162.363281 C 329.007812 160.511719 330.253906 158.707031 331.511719 156.914062 " fill-opacity="1" fill-rule="nonzero"/><path fill="#f0e8d8" d="M 170.714844 4.113281 C 174.085938 4.085938 177.460938 4.0625 180.835938 4.042969 L 183.742188 4.015625 L 186.527344 4.003906 L 189.097656 3.984375 C 191.242188 4.113281 191.242188 4.113281 193.523438 5.253906 L 193.523438 7.535156 C 190.140625 8.660156 187.253906 8.871094 183.71875 9.007812 C 165.890625 9.691406 148.855469 13.289062 133.4375 22.644531 C 118.933594 32.378906 107.652344 44.984375 98.867188 59.988281 L 97.515625 62.25 C 89.519531 76.8125 87.425781 95.054688 85.183594 111.304688 L 81.761719 111.304688 C 81.144531 97.597656 82.5625 85.707031 86.324219 72.53125 L 87.023438 69.945312 C 87.71875 67.402344 88.4375 64.871094 89.171875 62.339844 L 89.828125 59.988281 C 90.492188 57.820312 90.492188 57.820312 92.023438 54.289062 C 94.410156 52.878906 94.410156 52.878906 96.585938 52.007812 C 97.429688 49.375 98.183594 46.707031 98.867188 44.023438 C 101.148438 39.351562 103.886719 36.894531 107.992188 33.761719 L 109.132812 31.480469 L 111.410156 31.480469 L 112.550781 28.0625 L 114.832031 28.0625 L 115.972656 24.640625 C 120.222656 20.566406 124.824219 18.621094 130.300781 16.730469 C 131.925781 16.144531 133.554688 15.558594 135.179688 14.972656 L 137.605469 14.101562 C 142.007812 12.460938 146.292969 10.554688 150.585938 8.652344 C 155.671875 6.769531 160.613281 6.242188 166.007812 6.324219 L 168.707031 6.355469 L 170.714844 6.394531 Z M 170.714844 4.113281 " fill-opacity="1" fill-rule="nonzero"/><path fill="#505359" d="M 170.273438 52.878906 C 172.78125 53.949219 175.210938 55.179688 177.554688 56.570312 L 181.191406 58.636719 C 186.539062 62.796875 190.679688 67.339844 193.378906 73.601562 L 194.664062 77.09375 L 191.242188 75.953125 C 189.519531 73.589844 189.519531 73.589844 187.675781 70.609375 C 183.625 64.632812 179.402344 60.988281 172.996094 57.707031 C 166.621094 55.160156 160.386719 54.636719 153.605469 55.429688 C 145.875 57.300781 139.929688 61.066406 134.195312 66.519531 C 128.933594 72.570312 126.25 79.472656 124.40625 87.214844 C 123.667969 91.1875 123.570312 95.085938 123.601562 99.117188 L 123.613281 101.667969 C 123.75 108.671875 124.875 115 127.378906 121.566406 L 128.289062 125.734375 C 129.101562 127.878906 129.101562 127.878906 130.800781 129.546875 C 135.582031 131.261719 140.449219 131.722656 145.480469 132.253906 L 149.507812 132.777344 C 177.867188 136.328125 205.503906 135.789062 233.4375 129.546875 C 235.714844 129.152344 237.996094 128.769531 240.277344 128.40625 L 241.417969 130.6875 C 198.398438 141.773438 157.070312 140.835938 114.132812 129.347656 C 102.109375 125.988281 91.148438 122.203125 81.125 114.507812 L 79.480469 112.441406 C 79.226562 109.347656 79.226562 109.347656 79.480469 106.742188 C 76.488281 108.96875 76.488281 108.96875 73.777344 112.441406 C 72.964844 115.859375 72.722656 119.199219 72.636719 122.707031 L 69.214844 121.566406 C 70.503906 111.660156 70.503906 111.660156 72.839844 108.136719 C 74.347656 106.597656 74.347656 106.597656 77.199219 104.460938 L 79.480469 104.460938 L 79.480469 98.757812 L 82.902344 98.757812 L 82.902344 111.304688 C 96.671875 119.851562 110.21875 125.316406 126.238281 128.40625 L 125.03125 124.976562 C 120.472656 111.578125 118.226562 99.558594 120.605469 85.359375 C 122.664062 76.464844 125.878906 69.925781 131.941406 63.128906 C 137.070312 58.132812 142.253906 54.863281 149.089844 52.71875 C 156.175781 51.226562 163.269531 50.828125 170.273438 52.878906 " fill-opacity="1" fill-rule="nonzero"/><path fill="#f9f0de" d="M 69.214844 154.632812 L 73.777344 155.773438 C 73.085938 161.132812 70.816406 165.476562 68.289062 170.171875 L 66.925781 172.71875 C 59.246094 186.835938 50.300781 200.195312 41.308594 213.496094 C 36.074219 221.3125 31.230469 229.460938 27.019531 237.875 C 26.945312 239.824219 26.921875 241.773438 26.949219 243.71875 L 26.980469 246.863281 L 27.019531 249.277344 L 23.601562 249.277344 C 21.320312 245.859375 21.320312 245.859375 20.9375 243.46875 C 20.808594 235.515625 22.777344 229.195312 25.878906 221.910156 L 28.160156 221.910156 L 28.445312 219.347656 C 29.300781 216.210938 29.300781 216.210938 31.582031 213.789062 L 33.863281 211.648438 L 35.003906 208.226562 L 37 206.375 C 39.429688 203.8125 40.71875 201.703125 42.347656 198.609375 C 44.097656 195.308594 45.40625 193.269531 48.117188 190.625 C 52.660156 185.96875 55.660156 179.941406 57.402344 173.667969 C 57.539062 173.03125 57.671875 172.394531 57.8125 171.738281 L 60.09375 171.738281 L 60.449219 169.316406 C 61.339844 165.589844 62.855469 162.5625 64.65625 159.195312 L 66.9375 159.195312 Z M 69.214844 154.632812 " fill-opacity="1" fill-rule="nonzero"/><path fill="#f7cb96" d="M 126.238281 332.519531 L 128.667969 332.941406 C 132.417969 333.574219 136.167969 334.191406 139.921875 334.800781 L 143.464844 335.382812 C 156.285156 337.347656 169.195312 338.324219 182.117188 339.363281 C 182.945312 341.621094 183.703125 343.902344 184.398438 346.203125 C 183.472656 348.769531 183.472656 348.769531 182.117188 350.765625 L 180.976562 353.046875 C 174.636719 355.390625 167.0625 354.71875 160.449219 354.1875 C 156.457031 352.40625 156.457031 352.40625 154.730469 351.164062 C 151.410156 348.90625 147.800781 347.246094 144.199219 345.492188 C 140.351562 343.609375 136.652344 341.742188 133.078125 339.363281 L 133.078125 337.082031 L 128.519531 335.941406 L 128.519531 333.660156 Z M 126.238281 332.519531 " fill-opacity="1" fill-rule="nonzero"/><path fill="#f7cb96" d="M 265.367188 323.398438 C 270.015625 324.726562 273.882812 326.414062 277.914062 329.101562 C 278.339844 332.449219 278.339844 332.449219 277.914062 335.941406 C 276.457031 337.820312 276.457031 337.820312 274.492188 339.363281 C 271.09375 339.960938 267.671875 340.339844 264.226562 340.503906 L 261.074219 340.6875 C 249.507812 341.042969 238.621094 338.582031 227.734375 334.800781 C 230.589844 331.945312 232.992188 331.324219 236.859375 330.242188 L 241.417969 330.242188 L 241.417969 327.960938 L 245.554688 326.960938 C 248.484375 326.242188 251.195312 325.441406 254.035156 324.398438 C 258.089844 323.1875 261.144531 323.035156 265.367188 323.398438 " fill-opacity="1" fill-rule="nonzero"/><path fill="#5d636e" d="M 88.601562 310.855469 C 99.160156 316.039062 99.160156 316.039062 103.285156 318.550781 C 105.644531 319.9375 107.597656 320.625 110.269531 321.117188 L 110.269531 323.398438 L 113.480469 323.683594 C 117.183594 324.199219 120.316406 325.285156 123.777344 326.683594 C 131.539062 329.554688 139.394531 330.882812 147.546875 332.164062 L 149.855469 332.53125 C 164.050781 334.78125 177.5625 336.375 191.953125 335.488281 L 194.300781 335.34375 C 202.03125 334.859375 209.75 334.277344 217.46875 333.660156 L 217.46875 335.941406 C 213.292969 336.628906 209.105469 337.277344 204.914062 337.875 C 202.726562 338.210938 200.550781 338.605469 198.375 339.003906 C 186.683594 340.925781 175.382812 340.265625 163.65625 339.148438 L 161.339844 338.933594 C 150.21875 337.871094 139.421875 336.03125 128.519531 333.660156 L 129.660156 335.941406 L 133.078125 337.082031 L 133.078125 339.363281 L 135.5 340.289062 C 138.988281 341.730469 142.328125 343.359375 145.695312 345.0625 L 149.226562 346.847656 L 152.46875 348.484375 C 153.988281 349.246094 155.507812 350.007812 157.027344 350.765625 L 157.027344 351.90625 C 152.21875 352.128906 148.851562 351.679688 144.484375 349.625 L 144.484375 347.34375 L 142.558594 346.917969 C 139.671875 346.136719 136.980469 345.074219 134.21875 343.925781 L 134.21875 341.644531 L 128.519531 339.363281 L 128.519531 337.082031 L 126.238281 337.082031 L 126.238281 334.800781 L 123.957031 334.800781 L 123.957031 331.378906 L 121.675781 331.378906 L 120.535156 329.101562 C 117.601562 328.058594 117.601562 328.058594 114.191406 327.246094 C 113.039062 326.949219 111.882812 326.652344 110.695312 326.347656 L 107.992188 325.679688 L 107.992188 323.398438 L 100.007812 321.117188 L 100.007812 318.835938 L 93.164062 317.695312 L 93.164062 315.417969 L 89.742188 315.417969 L 89.742188 313.136719 L 87.464844 311.996094 Z M 88.601562 310.855469 " fill-opacity="1" fill-rule="nonzero"/><g clip-path="url(#1ca88b33ee)"><path fill="#faf1df" d="M 939.390625 -2.59375 C 942.476562 -2.011719 945.464844 -1.332031 948.476562 -0.445312 L 947.335938 1.832031 C 945.132812 2.316406 945.132812 2.316406 942.277344 2.6875 C 935.347656 3.984375 930.109375 6.679688 924.527344 10.957031 C 915.980469 18.917969 910.757812 27.792969 907.136719 38.824219 C 905.523438 44.351562 904.628906 49.578125 904.246094 55.3125 C 903.941406 58.285156 903.050781 60.746094 901.71875 63.410156 L 905.140625 64.550781 L 901.71875 65.691406 C 899.226562 64.40625 899.226562 64.40625 897.160156 62.269531 C 896.761719 59.265625 897.09375 56.890625 897.695312 53.933594 C 898.316406 50.78125 898.769531 47.628906 899.226562 44.453125 C 900.699219 35.535156 902.988281 27.285156 908.5625 20.078125 C 909.367188 17.628906 909.367188 17.628906 909.703125 15.519531 L 911.984375 15.519531 L 911.984375 12.097656 L 914.265625 12.097656 L 914.265625 9.816406 C 920.121094 4.359375 920.121094 4.359375 923.332031 3.5625 C 926.140625 2.855469 927.914062 1.539062 930.300781 -0.0898438 C 933.671875 -2.054688 935.457031 -2.746094 939.390625 -2.59375 M 333.792969 86.214844 C 337.703125 85.730469 341.300781 85.554688 345.195312 86.214844 C 348.300781 88.398438 350.183594 90.914062 352.039062 94.199219 C 353.039062 96.976562 353.039062 96.976562 353.179688 99.898438 L 353.402344 103.859375 C 353.394531 110.0625 351.5625 115.675781 349.757812 121.566406 L 348.769531 124.902344 C 347.96875 127.59375 347.160156 130.28125 346.335938 132.96875 L 344.058594 132.96875 C 344.664062 127.613281 345.449219 122.402344 346.574219 117.132812 C 348.21875 109.308594 349.21875 102.109375 347.476562 94.199219 L 346.335938 90.777344 C 337.363281 91.882812 330.863281 94.65625 323.53125 99.898438 C 320.148438 102.523438 316.820312 105.214844 313.488281 107.902344 C 306.855469 113.171875 299.953125 117.433594 291.597656 119.285156 C 292.738281 115.863281 292.738281 115.863281 294.304688 113.941406 L 296.160156 112.441406 L 299.582031 112.441406 L 300.507812 110.234375 L 301.863281 107.882812 L 305.28125 106.742188 L 306.421875 103.320312 C 308.363281 102.164062 310.304688 101.015625 312.292969 99.949219 C 315.175781 98.328125 317.632812 96.378906 320.109375 94.199219 L 321.25 91.917969 C 324.734375 89.855469 327.300781 88.546875 331.371094 88.285156 L 333.792969 88.496094 Z M 333.792969 86.214844 " fill-opacity="1" fill-rule="nonzero"/></g><path fill="#f7cb95" d="M 206.066406 89.636719 C 209.511719 89.4375 212.890625 89.335938 216.332031 89.636719 C 219.253906 91.347656 219.253906 91.347656 220.890625 93.058594 C 220.679688 95.480469 220.679688 95.480469 219.75 98.757812 C 218.007812 101.226562 216.085938 103.355469 214.050781 105.601562 L 216.332031 107.882812 C 216.542969 110.804688 216.542969 110.804688 216.332031 113.582031 L 215.191406 114.722656 C 204.59375 115.070312 204.59375 115.070312 201.503906 113.582031 C 199.792969 111.019531 199.792969 111.019531 198.082031 107.882812 C 196.59375 105.957031 195.070312 104.058594 193.523438 102.179688 C 194.648438 98.496094 195.71875 96.558594 198.511719 93.84375 L 201.503906 91.917969 L 206.066406 91.917969 Z M 206.066406 89.636719 " fill-opacity="1" fill-rule="nonzero"/><path fill="#4e5055" d="M 295.019531 204.808594 L 298.441406 207.089844 C 303.058594 221.855469 303.023438 240.988281 300.113281 256.058594 C 296.261719 273.027344 288.628906 286.515625 276.902344 299.347656 C 274.660156 301.566406 272.632812 303.523438 269.929688 305.152344 L 266.507812 304.011719 L 268.890625 302.082031 C 280.839844 291.886719 288.410156 280.363281 293.910156 265.617188 C 296.828125 255.628906 297.671875 246.277344 297.585938 235.878906 L 297.570312 231.941406 C 297.476562 222.722656 296.863281 213.859375 295.019531 204.808594 " fill-opacity="1" fill-rule="nonzero"/><path fill="#4e5055" d="M 297.300781 282.347656 L 298.441406 285.769531 C 294.363281 292.878906 288.921875 299.011719 282.976562 304.605469 C 281.132812 306.34375 281.132812 306.34375 279.765625 309.214844 C 276.777344 313.699219 272.191406 316.066406 267.648438 318.835938 L 268.789062 322.257812 L 271.070312 323.398438 L 269.929688 325.679688 L 268.148438 325.109375 C 263.628906 324.183594 259.414062 323.898438 254.960938 325.304688 C 253.398438 325.914062 251.847656 326.550781 250.3125 327.210938 C 248.261719 327.960938 248.261719 327.960938 244.839844 327.960938 L 244.839844 325.679688 L 248.472656 323.921875 C 256.386719 320.058594 264.117188 316.257812 271.304688 311.113281 C 273.351562 309.714844 273.351562 309.714844 275.753906 308.671875 L 277.914062 307.433594 C 278.714844 305.9375 279.476562 304.414062 280.195312 302.875 C 281.761719 301.027344 283.382812 299.222656 285.039062 297.457031 C 289.441406 292.675781 293.527344 287.640625 297.300781 282.347656 " fill-opacity="1" fill-rule="nonzero"/><path fill="#5d636e" d="M 104.570312 213.929688 L 106.851562 213.929688 C 106.066406 216.496094 106.066406 216.496094 104.570312 219.632812 C 101.933594 221.910156 101.933594 221.910156 98.867188 224.191406 C 98.007812 225.078125 97.144531 225.960938 96.253906 226.871094 C 87.253906 235.679688 76.019531 241.789062 64.65625 247 L 62.425781 248.09375 C 54.984375 251.609375 46.625 253.132812 38.425781 252.699219 L 38.425781 250.417969 L 42.023438 249.742188 C 64.199219 245.242188 81.898438 234.414062 98.867188 219.632812 L 101.949219 216.464844 Z M 104.570312 213.929688 " fill-opacity="1" fill-rule="nonzero"/><path fill="#f1e8d8" d="M 77.199219 106.742188 L 79.480469 106.742188 C 78.625 114.296875 78.625 114.296875 76.058594 118.144531 C 75.730469 123.605469 76.355469 128.726562 77.285156 134.089844 L 77.199219 136.390625 C 76.097656 137.566406 74.957031 138.707031 73.777344 139.808594 C 72.644531 142.386719 72.644531 142.386719 71.855469 145.15625 L 70.984375 147.949219 L 70.355469 150.074219 L 65.796875 147.792969 C 65.894531 146.199219 66.019531 144.609375 66.152344 143.019531 L 66.351562 140.332031 C 66.9375 137.53125 66.9375 137.53125 68.628906 134.941406 C 71.328125 130.078125 71.238281 125.03125 71.59375 119.554688 C 71.980469 115.15625 72.410156 112.796875 74.851562 108.984375 Z M 77.199219 106.742188 " fill-opacity="1" fill-rule="nonzero"/><path fill="#92bdb9" d="M 307.5625 257.261719 L 309.84375 257.261719 C 309.59375 268.792969 305.890625 277.878906 300.722656 288.050781 L 298.441406 288.050781 L 298.078125 290.027344 C 297.171875 293.03125 295.839844 294.960938 293.949219 297.457031 L 292.136719 299.898438 L 290.457031 301.734375 L 288.175781 301.734375 L 288.175781 304.011719 L 285.894531 304.011719 L 285.894531 306.292969 L 280.195312 308.574219 C 281.726562 305.109375 283.390625 302.921875 286.179688 300.378906 C 297.148438 289.550781 302.464844 275.234375 306.65625 260.621094 Z M 307.5625 257.261719 " fill-opacity="1" fill-rule="nonzero"/><path fill="#9fbcd8" d="M 168.433594 199.105469 L 169.574219 199.105469 C 169.984375 201.71875 170.386719 204.332031 170.785156 206.945312 L 171.464844 211.355469 L 171.855469 215.070312 L 170.714844 217.351562 C 170.515625 219.484375 170.320312 221.617188 170.148438 223.753906 C 169.101562 236.351562 165.78125 247.65625 161.589844 259.542969 L 158.167969 259.542969 L 158.761719 257.28125 C 163.835938 237.792969 167.363281 219.222656 168.433594 199.105469 " fill-opacity="1" fill-rule="nonzero"/><path fill="#5d636e" d="M 333.792969 86.214844 C 337.703125 85.730469 341.300781 85.554688 345.195312 86.214844 C 348.300781 88.398438 350.183594 90.914062 352.039062 94.199219 C 353.039062 96.976562 353.039062 96.976562 353.179688 99.898438 L 353.402344 103.859375 C 353.394531 110.0625 351.5625 115.675781 349.757812 121.566406 L 348.769531 124.902344 C 347.96875 127.59375 347.160156 130.28125 346.335938 132.96875 L 344.058594 132.96875 C 344.664062 127.613281 345.449219 122.402344 346.574219 117.132812 C 348.21875 109.308594 349.21875 102.109375 347.476562 94.199219 L 346.335938 90.777344 L 344.058594 90.777344 L 344.058594 88.496094 L 333.792969 88.496094 Z M 333.792969 86.214844 " fill-opacity="1" fill-rule="nonzero"/><path fill="#0c090c" d="M 211.769531 89.636719 C 214.0625 89.9375 216.34375 90.324219 218.609375 90.777344 L 220.890625 93.058594 C 220.820312 95.625 220.820312 95.625 219.75 98.757812 C 217.992188 101.214844 216.085938 103.355469 214.050781 105.601562 L 216.332031 107.882812 C 216.542969 110.804688 216.542969 110.804688 216.332031 113.582031 L 215.191406 114.722656 C 205.84375 115.03125 205.84375 115.03125 201.503906 113.582031 L 201.503906 111.304688 L 214.050781 112.441406 L 211.769531 110.304688 L 209.488281 107.882812 L 209.488281 105.601562 L 205.78125 105.742188 C 201.503906 105.601562 201.503906 105.601562 198.726562 104.460938 L 196.941406 103.320312 L 196.941406 102.179688 L 199.15625 102.261719 C 205.394531 102.390625 210.433594 101.949219 216.332031 99.898438 L 217.46875 94.199219 L 214.621094 92.558594 L 211.769531 90.777344 Z M 211.769531 89.636719 " fill-opacity="1" fill-rule="nonzero"/><path fill="#5d636e" d="M 241.417969 327.960938 L 241.417969 330.242188 L 230.015625 333.660156 C 242.148438 339.59375 254.417969 339.683594 267.648438 339.363281 C 266.289062 341.050781 266.289062 341.050781 264.226562 342.785156 C 249.265625 345.171875 233.742188 339.453125 219.75 334.800781 L 219.75 332.519531 C 222.503906 331.753906 225.261719 330.996094 228.019531 330.242188 L 230.375 329.582031 C 234.242188 328.53125 237.378906 327.960938 241.417969 327.960938 " fill-opacity="1" fill-rule="nonzero"/><path fill="#393945" d="M 233.4375 45.164062 C 240.367188 45.496094 245.503906 46.507812 251.453125 50.144531 C 258.148438 55.113281 262.816406 61.136719 266.4375 68.613281 C 268.605469 73.78125 269.613281 78.355469 269.929688 83.9375 L 267.648438 83.9375 L 266.890625 81.054688 C 264.222656 71.578125 261.109375 64.054688 254.351562 56.824219 C 249.796875 52.578125 245.109375 50.257812 239.136719 48.585938 C 237.25 48.152344 235.351562 47.746094 233.4375 47.445312 Z M 233.4375 45.164062 " fill-opacity="1" fill-rule="nonzero"/><path fill="#363643" d="M 153.605469 52.007812 C 160.351562 51.597656 166.5625 51.25 172.851562 54.003906 C 174.4375 54.824219 176.007812 55.675781 177.554688 56.570312 L 181.191406 58.636719 C 186.539062 62.796875 190.679688 67.339844 193.378906 73.601562 L 194.664062 77.09375 L 191.242188 75.953125 C 189.519531 73.589844 189.519531 73.589844 187.675781 70.609375 C 183.632812 64.640625 179.40625 60.972656 172.996094 57.707031 C 167.632812 55.699219 162.492188 55.0625 156.824219 54.679688 L 154.746094 54.289062 Z M 153.605469 52.007812 " fill-opacity="1" fill-rule="nonzero"/><path fill="#4e5055" d="M 223.171875 47.445312 L 226.59375 48.585938 L 224.71875 50.34375 C 220.132812 54.75 216.386719 58.507812 214.050781 64.550781 C 213.128906 67.746094 212.714844 70.726562 212.546875 74.046875 L 212.402344 76.808594 L 212.265625 79.660156 L 212.117188 82.5625 C 212 84.921875 211.882812 87.277344 211.769531 89.636719 L 209.488281 89.636719 C 207.261719 82.953125 208.484375 74.898438 209.488281 67.972656 C 211.222656 61.40625 213.839844 55.785156 218.609375 50.867188 C 220.964844 48.730469 220.964844 48.730469 223.171875 47.445312 " fill-opacity="1" fill-rule="nonzero"/><path fill="#363643" d="M 131.9375 16.65625 L 131.9375 18.9375 C 129.878906 20.441406 127.75 21.851562 125.597656 23.214844 C 116.28125 29.304688 109.789062 35.125 103.085938 44.050781 L 101.148438 46.304688 L 98.867188 46.304688 C 100.46875 41.214844 103.019531 38.542969 106.851562 34.902344 L 109.132812 31.480469 L 111.410156 31.480469 L 112.550781 28.0625 L 114.832031 28.0625 L 115.972656 24.640625 C 120.183594 20.675781 125.929688 16.65625 131.9375 16.65625 " fill-opacity="1" fill-rule="nonzero"/><path fill="#474850" d="M 277.914062 160.335938 L 280.195312 160.335938 C 296.160156 194.507812 296.160156 194.507812 296.160156 203.667969 L 293.878906 203.667969 L 292.703125 199.859375 C 289.414062 189.488281 285.683594 179.648438 280.808594 169.910156 C 277.914062 164.074219 277.914062 164.074219 277.914062 160.335938 " fill-opacity="1" fill-rule="nonzero"/><g clip-path="url(#6f07a6da1f)"><path fill="#5d636e" d="M 298.441406 607.332031 C 304 609.472656 304 609.472656 305.28125 610.753906 C 304.925781 614.675781 304.925781 614.675781 304.140625 618.738281 L 301.863281 621.015625 C 298.867188 620.589844 298.867188 620.589844 296.160156 619.875 C 295.375 616.171875 295.375 616.171875 295.019531 611.894531 C 296.660156 609.117188 296.660156 609.117188 298.441406 607.332031 M 1064.800781 845.65625 L 1065.941406 847.9375 C 1068.351562 848.972656 1068.351562 848.972656 1071.144531 849.789062 C 1072.085938 850.085938 1073.027344 850.382812 1074 850.691406 L 1076.203125 851.359375 L 1076.203125 852.5 C 1074.589844 852.335938 1072.972656 852.167969 1071.359375 852 L 1068.632812 851.71875 C 1065.941406 851.359375 1065.941406 851.359375 1063.878906 850.710938 C 1060.730469 850.089844 1058.347656 850.527344 1055.195312 851.105469 L 1051.65625 851.738281 L 1047.980469 852.425781 L 1044.25 853.101562 C 1041.214844 853.652344 1038.179688 854.210938 1035.148438 854.777344 L 1035.148438 851.359375 L 1039.027344 850.691406 C 1047.667969 849.191406 1056.265625 847.671875 1064.800781 845.65625 M 967.863281 123.847656 C 970.714844 123.492188 970.714844 123.492188 973.566406 123.847656 L 975.847656 127.265625 C 975.417969 131.472656 975.417969 131.472656 974.707031 135.25 C 972.710938 136.035156 972.710938 136.035156 970.144531 136.390625 C 967.578125 135.179688 967.578125 135.179688 965.582031 132.96875 C 965.15625 129.476562 965.15625 129.476562 965.582031 126.125 Z M 368.003906 621.015625 C 370.929688 621.375 370.929688 621.375 373.707031 622.15625 L 374.847656 623.296875 C 375.0625 627.21875 375.0625 627.21875 374.847656 631.28125 L 372.566406 633.558594 C 369.574219 633.703125 369.574219 633.703125 366.863281 633.558594 C 365.652344 631.636719 365.652344 631.636719 364.585938 629 C 364.871094 626.007812 364.871094 626.007812 365.726562 623.296875 Z M 368.003906 621.015625 " fill-opacity="1" fill-rule="nonzero"/></g><path fill="#0c090c" d="M 328.089844 88.496094 L 331.511719 89.636719 L 329.078125 91.441406 C 323.820312 95.363281 318.574219 99.285156 313.445312 103.375 L 311.265625 105.109375 C 309.855469 106.234375 308.449219 107.367188 307.046875 108.503906 C 305.34375 109.847656 303.617188 111.164062 301.863281 112.441406 L 299.582031 112.441406 C 300.507812 110.234375 300.507812 110.234375 301.863281 107.882812 L 305.28125 106.742188 L 306.421875 103.320312 C 308.363281 102.164062 310.304688 101.015625 312.292969 99.949219 C 315.175781 98.328125 317.632812 96.378906 320.109375 94.199219 L 321.25 91.917969 C 324.527344 89.992188 324.527344 89.992188 328.089844 88.496094 " fill-opacity="1" fill-rule="nonzero"/><path fill="#363643" d="M 80.621094 97.621094 L 82.902344 99.898438 C 83.082031 102.539062 83.082031 102.539062 82.972656 105.601562 C 82.734375 109.753906 82.734375 109.753906 84.042969 113.582031 L 79.480469 112.441406 L 79.480469 106.742188 C 76.488281 108.96875 76.488281 108.96875 73.777344 112.441406 C 72.964844 115.859375 72.722656 119.199219 72.636719 122.707031 L 69.214844 121.566406 C 70.503906 111.660156 70.503906 111.660156 72.839844 108.136719 C 74.347656 106.597656 74.347656 106.597656 77.199219 104.460938 L 79.480469 104.460938 L 79.410156 101.683594 L 79.480469 98.757812 Z M 80.621094 97.621094 " fill-opacity="1" fill-rule="nonzero"/><path fill="#383845" d="M 66.9375 148.933594 C 69.667969 150.292969 72.394531 151.671875 75.113281 153.0625 C 82.144531 156.640625 89.097656 160.070312 96.585938 162.617188 L 96.585938 164.898438 C 89.136719 163.898438 82.886719 161.066406 76.058594 158.054688 L 71.925781 156.34375 L 69.214844 154.632812 C 67.648438 151.570312 67.648438 151.570312 66.9375 148.933594 " fill-opacity="1" fill-rule="nonzero"/><path fill="#faf1df" d="M 56.671875 253.839844 L 61.234375 254.980469 L 61.402344 256.984375 C 61.917969 262.355469 62.785156 266.996094 64.65625 272.085938 C 65.28125 274.125 65.898438 276.167969 66.507812 278.214844 C 66.804688 279.210938 67.101562 280.207031 67.410156 281.234375 C 67.628906 281.976562 67.847656 282.722656 68.074219 283.488281 L 65.796875 283.488281 L 64.65625 277.785156 L 62.375 277.785156 C 61.417969 274.222656 60.46875 270.660156 59.523438 267.097656 L 58.699219 264.023438 L 57.917969 261.082031 L 57.195312 258.371094 C 56.671875 256.121094 56.671875 256.121094 56.671875 253.839844 " fill-opacity="1" fill-rule="nonzero"/><path fill="#3d3e4a" d="M 261.945312 317.695312 C 265.140625 319.027344 265.140625 319.027344 267.648438 321.117188 L 271.070312 323.398438 L 269.929688 325.679688 L 268.148438 325.109375 C 263.628906 324.183594 259.414062 323.898438 254.960938 325.304688 C 253.398438 325.914062 251.847656 326.550781 250.3125 327.210938 C 248.261719 327.960938 248.261719 327.960938 244.839844 327.960938 L 244.839844 325.679688 C 247.558594 324.25 250.292969 322.847656 253.039062 321.476562 L 255.363281 320.234375 C 257.648438 319.109375 257.648438 319.109375 261.945312 317.695312 " fill-opacity="1" fill-rule="nonzero"/><g clip-path="url(#4423cdff49)"><path fill="#0c090c" d="M 996.375 135.25 L 998.65625 135.25 L 999.796875 139.808594 C 1002.527344 139.871094 1005.261719 139.917969 1007.992188 139.953125 L 1010.320312 140.011719 C 1015 140.054688 1018.363281 139.441406 1022.605469 137.53125 L 1026.027344 137.53125 L 1026.027344 139.808594 C 1019.3125 142.910156 1013.824219 143.601562 1006.445312 143.574219 C 1003.042969 143.214844 1000.546875 142.535156 997.515625 140.949219 C 996.589844 137.957031 996.589844 137.957031 996.375 135.25 M -71.054688 692.855469 L -68.773438 692.855469 C -69.351562 699.167969 -71.003906 703.757812 -73.976562 709.320312 L -75.117188 711.515625 C -76.035156 713.285156 -76.960938 715.046875 -77.898438 716.800781 L -80.179688 716.800781 C -79.589844 712.09375 -77.839844 708.554688 -75.679688 704.414062 C -73.828125 700.664062 -72.460938 696.792969 -71.054688 692.855469 " fill-opacity="1" fill-rule="nonzero"/></g><path fill="#0c090c" d="M 206.066406 89.636719 L 206.066406 91.917969 L 202.289062 93.34375 C 199.574219 94.523438 197.957031 95.453125 195.730469 97.476562 L 194.664062 99.898438 C 195.738281 104.558594 198.433594 107.71875 201.503906 111.304688 C 198.464844 110.871094 196.910156 110.136719 194.449219 108.238281 C 192.382812 105.601562 192.382812 105.601562 191.171875 102.324219 L 191.242188 98.757812 C 193.605469 95.242188 195.761719 92.703125 199.296875 90.351562 C 201.503906 89.636719 201.503906 89.636719 206.066406 89.636719 " fill-opacity="1" fill-rule="nonzero"/><path fill="#363643" d="M 239.636719 128.835938 L 241.417969 129.546875 C 238.359375 131.589844 236.851562 132.277344 233.414062 133.046875 L 230.734375 133.652344 L 227.949219 134.25 L 225.203125 134.878906 C 220.296875 135.957031 215.679688 136.867188 210.628906 136.390625 L 208.347656 134.109375 L 212.554688 133.441406 L 218.113281 132.539062 L 220.875 132.105469 C 225.121094 131.410156 229.242188 130.648438 233.367188 129.40625 C 236.859375 128.40625 236.859375 128.40625 239.636719 128.835938 " fill-opacity="1" fill-rule="nonzero"/><path fill="#363643" d="M 284.753906 284.628906 L 287.035156 284.628906 C 285.4375 289.417969 283.171875 292.472656 279.765625 296.175781 L 277.101562 299.105469 C 274.792969 301.429688 272.742188 303.476562 269.929688 305.152344 L 266.507812 304.011719 L 269.050781 301.800781 C 275.085938 296.453125 280.234375 291.339844 284.753906 284.628906 " fill-opacity="1" fill-rule="nonzero"/><g clip-path="url(#28d7db5721)"><path fill="#363643" d="M 978.128906 259.542969 C 984.375 260.28125 990.207031 261.679688 996.234375 263.460938 L 998.898438 264.210938 C 1001.121094 264.863281 1003.3125 265.613281 1005.5 266.382812 L 1006.640625 268.664062 C 996.9375 268.417969 988.089844 265.761719 979.269531 261.824219 Z M 35.003906 208.226562 L 37.285156 208.226562 C 36.65625 213.445312 34.386719 217.230469 31.582031 221.554688 C 28.570312 226.199219 28.570312 226.199219 25.878906 231.035156 L 23.601562 231.035156 C 24.195312 227.882812 24.863281 224.960938 25.878906 221.910156 L 28.160156 221.910156 L 28.445312 219.347656 C 29.300781 216.210938 29.300781 216.210938 31.582031 213.789062 L 33.863281 211.648438 Z M 35.003906 208.226562 " fill-opacity="1" fill-rule="nonzero"/></g><path fill="#5d636e" d="M 210.628906 66.832031 L 212.910156 66.832031 L 211.769531 89.636719 L 209.488281 89.636719 C 208.042969 85.296875 208.460938 81.433594 208.773438 76.953125 L 208.925781 74.390625 C 209.066406 72.246094 209.273438 70.109375 209.488281 67.972656 Z M 210.628906 66.832031 " fill-opacity="1" fill-rule="nonzero"/><path fill="#363643" d="M 77.199219 134.109375 C 82.039062 135.941406 86.628906 138.1875 91.242188 140.523438 L 93.472656 141.644531 C 95.269531 142.550781 97.070312 143.460938 98.867188 144.371094 L 98.867188 146.652344 C 90.507812 145.234375 83.886719 141.601562 77.199219 136.390625 Z M 77.199219 134.109375 " fill-opacity="1" fill-rule="nonzero"/><path fill="#5d636e" d="M 280.195312 130.6875 L 282.472656 130.6875 C 282.332031 132.683594 282.332031 132.683594 281.332031 135.25 C 277.417969 138.277344 273.515625 140.597656 268.789062 142.089844 L 264.226562 142.089844 L 264.226562 139.808594 L 267.140625 138.394531 L 270.925781 136.53125 L 274.695312 134.6875 C 277.957031 133.144531 277.957031 133.144531 280.195312 130.6875 " fill-opacity="1" fill-rule="nonzero"/><path fill="#3d3e4b" d="M 241.417969 23.5 L 244.839844 23.5 C 246.503906 24.996094 246.503906 24.996094 248.261719 26.921875 C 250.367188 28.648438 252.484375 30.359375 254.617188 32.050781 L 256.246094 33.761719 L 256.246094 37.183594 L 258.527344 37.183594 L 258.527344 39.464844 C 254.960938 37.890625 252.644531 36.085938 249.972656 33.265625 C 247.769531 30.980469 245.753906 29.035156 243.203125 27.136719 L 241.417969 25.78125 Z M 241.417969 23.5 " fill-opacity="1" fill-rule="nonzero"/><g clip-path="url(#f1da006109)"><path fill="#363643" d="M 260.804688 708.820312 L 263.085938 708.820312 C 261.59375 716.929688 259.648438 724.839844 257.386719 732.765625 L 255.105469 732.765625 C 255.675781 724.222656 257.882812 716.851562 260.804688 708.820312 M 1096.730469 585.667969 L 1100.152344 586.808594 C 1101.71875 589.710938 1103.140625 592.679688 1104.429688 595.71875 L 1105.566406 598.222656 L 1106.621094 600.65625 L 1107.585938 602.878906 C 1108.136719 605.054688 1108.136719 605.054688 1107.660156 607.609375 L 1106.996094 609.613281 C 1104.277344 605.535156 1102.976562 601.449219 1101.40625 596.832031 C 1100.140625 593.621094 1098.507812 590.894531 1096.730469 587.949219 Z M 266.507812 305.152344 L 265.367188 308.574219 C 262.632812 310.285156 259.828125 311.878906 256.957031 313.351562 L 254.585938 314.621094 C 248.722656 317.695312 248.722656 317.695312 244.839844 317.695312 L 245.980469 314.277344 C 247.75 313.050781 247.75 313.050781 250.003906 311.945312 L 252.457031 310.734375 L 255.03125 309.5 L 257.597656 308.230469 C 263.890625 305.152344 263.890625 305.152344 266.507812 305.152344 M 1010.058594 269.804688 C 1014.316406 270.378906 1018.441406 271.042969 1022.605469 272.085938 L 1026.027344 272.085938 C 1028.691406 272.445312 1031.351562 272.824219 1034.007812 273.226562 C 1032.867188 275.007812 1032.867188 275.007812 1030.585938 276.644531 C 1023.078125 276.515625 1016.871094 273.945312 1010.058594 270.945312 Z M 1010.058594 269.804688 " fill-opacity="1" fill-rule="nonzero"/></g><path fill="#0c090c" d="M 242.132812 77.734375 L 245.980469 79.375 C 247.621094 82.367188 247.621094 82.367188 248.261719 85.074219 L 245.980469 86.214844 L 240.277344 80.515625 C 238.054688 81.4375 238.054688 81.4375 235.71875 82.796875 L 233.4375 86.214844 L 231.15625 86.214844 C 232.011719 82.9375 232.011719 82.9375 233.4375 79.375 C 236.535156 76.621094 237.992188 77.09375 242.132812 77.734375 " fill-opacity="1" fill-rule="nonzero"/><path fill="#4e5055" d="M 348.617188 109.023438 L 349.757812 109.023438 C 350.988281 113.984375 350.753906 117.621094 349.378906 122.546875 L 348.6875 124.84375 L 348.015625 127.222656 C 347.464844 129.140625 346.90625 131.054688 346.335938 132.96875 L 344.058594 132.96875 C 344.855469 124.808594 346.6875 116.984375 348.617188 109.023438 " fill-opacity="1" fill-rule="nonzero"/><path fill="#5d636e" d="M 178.695312 349.625 L 182.117188 350.765625 L 180.976562 353.046875 C 176.839844 354.644531 172.519531 354.296875 168.148438 354.257812 L 163.78125 354.226562 L 160.449219 354.1875 L 159.308594 351.90625 C 161.121094 351.804688 161.121094 351.804688 162.96875 351.695312 L 167.71875 351.40625 L 170.132812 351.269531 C 174.5625 351.058594 174.5625 351.058594 178.695312 349.625 " fill-opacity="1" fill-rule="nonzero"/><path fill="#3c3d47" d="M 241.417969 327.960938 L 241.417969 330.242188 C 239.617188 330.816406 237.808594 331.386719 236.003906 331.949219 L 232.957031 332.914062 C 230.015625 333.660156 230.015625 333.660156 225.453125 333.660156 L 224.3125 335.941406 L 219.75 334.800781 L 219.75 332.519531 C 222.503906 331.753906 225.261719 330.996094 228.019531 330.242188 L 230.375 329.582031 C 234.242188 328.53125 237.378906 327.960938 241.417969 327.960938 " fill-opacity="1" fill-rule="nonzero"/><path fill="#363643" d="M 277.914062 160.335938 L 280.195312 160.335938 C 281.5625 163.109375 282.914062 165.890625 284.257812 168.675781 L 285.4375 171.058594 C 286.4375 173.148438 287.3125 175.292969 288.175781 177.441406 L 287.035156 180.859375 C 284.132812 177.957031 282.914062 174.96875 281.191406 171.242188 L 279.328125 167.253906 C 277.914062 163.757812 277.914062 163.757812 277.914062 160.335938 M 64.65625 159.195312 L 66.9375 159.195312 C 66.746094 162.871094 66.054688 165.59375 64.195312 168.777344 C 62.496094 171.316406 60.746094 173.824219 58.953125 176.300781 L 57.8125 171.738281 L 60.09375 171.738281 L 60.449219 169.316406 C 61.339844 165.589844 62.855469 162.5625 64.65625 159.195312 " fill-opacity="1" fill-rule="nonzero"/><path fill="#98a9c1" d="M 163.871094 243.578125 L 166.152344 243.578125 C 165.632812 245.574219 165.113281 247.570312 164.582031 249.5625 L 163.703125 252.929688 C 162.894531 255.632812 161.8125 258.214844 160.449219 260.683594 L 158.167969 258.402344 L 161.589844 245.859375 L 163.871094 245.859375 Z M 163.871094 243.578125 " fill-opacity="1" fill-rule="nonzero"/><g clip-path="url(#234e70551c)"><path fill="#4e5055" d="M 401.078125 696.277344 L 403.359375 696.277344 C 404.503906 698.699219 405.644531 701.121094 406.78125 703.546875 L 408.703125 707.636719 C 410.199219 711.101562 410.199219 711.101562 410.199219 713.382812 L 407.921875 713.382812 C 406.773438 711.175781 405.632812 708.96875 404.5 706.753906 L 402.574219 703.023438 C 401.078125 699.699219 401.078125 699.699219 401.078125 696.277344 M 217.46875 333.660156 L 217.46875 335.941406 L 198.082031 338.222656 L 198.082031 334.800781 C 200.246094 334.609375 202.40625 334.417969 204.570312 334.230469 L 208.21875 333.910156 C 211.300781 333.695312 214.382812 333.613281 217.46875 333.660156 " fill-opacity="1" fill-rule="nonzero"/></g><path fill="#5b606b" d="M 293.878906 163.757812 L 296.160156 163.757812 C 296.925781 165.773438 297.6875 167.792969 298.441406 169.816406 L 299.722656 173.222656 C 300.722656 176.300781 300.722656 176.300781 300.722656 179.722656 L 297.300781 179.722656 C 296.660156 177.582031 296.660156 177.582031 296.160156 175.160156 L 297.300781 172.878906 L 295.019531 171.738281 C 294.550781 169.089844 294.171875 166.429688 293.878906 163.757812 " fill-opacity="1" fill-rule="nonzero"/><path fill="#0c090c" d="M 305.28125 560.582031 L 307.5625 560.582031 C 305.96875 564.183594 304.082031 566.652344 301.292969 569.417969 L 299.1875 571.539062 L 297.300781 573.125 L 295.019531 573.125 C 296.347656 570.355469 297.871094 567.695312 299.582031 565.140625 L 301.863281 565.140625 L 301.863281 562.863281 Z M 214.050781 107.882812 L 216.332031 107.882812 C 216.378906 109.78125 216.375 111.683594 216.332031 113.582031 L 215.191406 114.722656 C 205.84375 115.03125 205.84375 115.03125 201.503906 113.582031 L 201.503906 111.304688 L 214.050781 112.441406 Z M 214.050781 107.882812 " fill-opacity="1" fill-rule="nonzero"/><path fill="#1f1e23" d="M 80.621094 97.621094 L 82.902344 99.898438 C 83.082031 102.539062 83.082031 102.539062 82.972656 105.601562 C 82.734375 109.753906 82.734375 109.753906 84.042969 113.582031 L 79.480469 112.441406 L 77.199219 104.460938 L 79.480469 104.460938 L 79.410156 101.683594 L 79.480469 98.757812 Z M 80.621094 97.621094 " fill-opacity="1" fill-rule="nonzero"/><g clip-path="url(#724d10aad4)"><path fill="#363643" d="M 1037.429688 220.773438 L 1039.710938 220.773438 C 1039.355469 222.601562 1039 224.429688 1038.640625 226.261719 L 1038.039062 229.347656 C 1037.429688 232.175781 1037.429688 232.175781 1036.289062 235.59375 L 1034.007812 235.59375 C 1034.554688 230.21875 1035.113281 225.714844 1037.429688 220.773438 M 267.648438 690.574219 L 269.929688 690.574219 L 269.929688 697.417969 L 266.507812 698.558594 L 265.367188 704.257812 L 263.085938 704.257812 C 263.632812 702.40625 264.179688 700.554688 264.726562 698.699219 L 265.648438 695.574219 C 266.507812 692.855469 266.507812 692.855469 267.648438 690.574219 " fill-opacity="1" fill-rule="nonzero"/></g><path fill="#5d636e" d="M 222.03125 13.238281 C 228.054688 13.824219 231.808594 15.808594 236.859375 18.9375 L 235.71875 21.21875 L 222.03125 14.378906 Z M 222.03125 13.238281 " fill-opacity="1" fill-rule="nonzero"/><g clip-path="url(#02295f2eac)"><path fill="#4e5055" d="M 232.296875 321.117188 C 228.15625 323.105469 225.125 324.460938 220.535156 324.894531 L 217.46875 324.539062 L 215.191406 322.257812 C 217.183594 321.84375 219.179688 321.441406 221.175781 321.046875 L 224.542969 320.367188 C 227.582031 319.996094 229.433594 320.144531 232.296875 321.117188 M 1049.976562 850.21875 L 1048.835938 852.5 C 1045.730469 853.21875 1045.730469 853.21875 1041.921875 853.78125 L 1038.101562 854.359375 L 1035.148438 854.777344 L 1035.148438 851.359375 C 1040.152344 850.558594 1044.910156 850.09375 1049.976562 850.21875 " fill-opacity="1" fill-rule="nonzero"/></g><path fill="#1e1d24" d="M 168.433594 88.496094 L 168.433594 90.777344 L 164.726562 91.773438 C 161.484375 92.746094 158.8125 93.699219 155.886719 95.339844 C 156.816406 92.558594 156.816406 92.558594 158.167969 89.636719 C 161.8125 88.421875 164.621094 88.414062 168.433594 88.496094 " fill-opacity="1" fill-rule="nonzero"/><path fill="#4e5055" d="M 263.085938 45.164062 C 266.457031 48.304688 268.921875 51.347656 271.070312 55.429688 L 271.070312 57.707031 L 267.648438 56.570312 C 266.066406 54.210938 266.066406 54.210938 264.585938 51.367188 L 263.074219 48.511719 L 261.945312 46.304688 Z M 263.085938 45.164062 " fill-opacity="1" fill-rule="nonzero"/><path fill="#a6c0d8" d="M 73.777344 296.03125 C 78.5 299.792969 82.429688 303.070312 85.183594 308.574219 L 81.761719 308.574219 C 79.679688 306.699219 79.679688 306.699219 77.554688 304.226562 L 75.40625 301.78125 L 73.777344 299.453125 Z M 73.777344 296.03125 " fill-opacity="1" fill-rule="nonzero"/><path fill="#0c090c" d="M 196.941406 102.179688 L 210.628906 102.179688 L 209.488281 105.601562 C 202.1875 105.882812 202.1875 105.882812 198.726562 104.460938 L 196.941406 103.320312 Z M 196.941406 102.179688 " fill-opacity="1" fill-rule="nonzero"/><path fill="#363643" d="M 92.023438 639.261719 L 95.445312 640.402344 C 95.496094 642.683594 95.492188 644.964844 95.445312 647.242188 L 94.304688 648.382812 C 92.40625 648.429688 90.503906 648.433594 88.601562 648.382812 L 88.601562 646.105469 L 92.023438 644.964844 Z M 306.421875 103.320312 L 309.84375 105.601562 C 308.566406 106.746094 307.285156 107.886719 305.996094 109.023438 L 303.832031 110.945312 L 301.863281 112.441406 L 299.582031 112.441406 C 300.507812 110.234375 300.507812 110.234375 301.863281 107.882812 L 305.28125 106.742188 Z M 306.421875 103.320312 " fill-opacity="1" fill-rule="nonzero"/><path fill="#363643" d="M 275.632812 327.960938 L 277.914062 329.101562 C 278.128906 332.308594 278.128906 332.308594 277.914062 335.941406 C 276.34375 338.082031 276.34375 338.082031 274.492188 339.363281 L 272.210938 339.363281 L 273.351562 337.4375 C 274.640625 334.453125 274.578125 332.316406 274.492188 329.101562 Z M 275.632812 327.960938 " fill-opacity="1" fill-rule="nonzero"/><path fill="#4e5055" d="M 340.636719 138.671875 L 342.917969 140.949219 L 338.355469 151.214844 L 336.074219 151.214844 C 336.765625 146.507812 338.398438 142.851562 340.636719 138.671875 " fill-opacity="1" fill-rule="nonzero"/><g clip-path="url(#6c5b25fa1c)"><path fill="#363643" d="M 1168.578125 630.140625 L 1168.578125 632.421875 L 1158.3125 635.839844 L 1158.3125 633.558594 C 1164.730469 630.140625 1164.730469 630.140625 1168.578125 630.140625 M 94.304688 52.007812 L 96.585938 52.007812 C 95.660156 55.285156 95.660156 55.285156 94.304688 58.847656 L 90.882812 61.128906 C 91.183594 58.835938 91.570312 56.554688 92.023438 54.289062 Z M 94.304688 52.007812 " fill-opacity="1" fill-rule="nonzero"/></g><g clip-path="url(#253594c94b)"><path fill="#363643" d="M -39.125 574.265625 L -36.84375 574.265625 C -38.171875 577.035156 -39.691406 579.695312 -41.402344 582.246094 L -43.683594 582.246094 C -42.460938 578.921875 -41.65625 576.796875 -39.125 574.265625 M 841.277344 284.628906 L 844.699219 284.628906 L 845.839844 293.75 L 843.558594 292.609375 C 842.722656 289.972656 841.964844 287.3125 841.277344 284.628906 " fill-opacity="1" fill-rule="nonzero"/></g><path fill="#0c090c" d="M 45.269531 193.40625 L 47.546875 193.40625 C 47.261719 196.113281 47.261719 196.113281 46.40625 199.105469 C 44.054688 200.601562 44.054688 200.601562 41.847656 201.386719 C 43.984375 194.6875 43.984375 194.6875 45.269531 193.40625 " fill-opacity="1" fill-rule="nonzero"/><path fill="#363643" d="M 264.226562 318.835938 L 271.070312 323.398438 L 269.929688 325.679688 L 263.085938 323.398438 Z M 264.226562 318.835938 " fill-opacity="1" fill-rule="nonzero"/><path fill="#4a4d59" d="M 210.628906 103.320312 L 212.910156 103.320312 L 215.191406 107.882812 L 212.910156 110.164062 L 209.488281 107.882812 Z M 210.628906 103.320312 " fill-opacity="1" fill-rule="nonzero"/></svg>